<?xml version="1.0" standalone="no"?>
<!DOCTYPE svg PUBLIC "-//W3C//DTD SVG 1.1//EN" "http://www.w3.org/Graphics/SVG/1.1/DTD/svg11.dtd" >
<svg xmlns="http://www.w3.org/2000/svg" xmlns:xlink="http://www.w3.org/1999/xlink" version="1.1">
<metadata>
Created by FontForge 20170731 at Mon Dec 10 04:50:03 2012
 By Aleksey,,,
</metadata>
<defs>
<font id="Giorgio" horiz-adv-x="617" >
  <font-face 
    font-family="Giorgio"
    font-weight="400"
    font-stretch="normal"
    units-per-em="1000"
    panose-1="0 0 0 0 0 0 0 0 0 0"
    ascent="750"
    descent="-250"
    x-height="532"
    cap-height="749"
    bbox="-60 -398 1228 991"
    underline-thickness="50"
    underline-position="-150"
    unicode-range="U+0020-2122"
  />
<missing-glyph horiz-adv-x="534" 
d="M70 686h404v-622h-404v0v622zM230 386l-90 130v-260zM155 616l117 -169l117 169h-234zM405 516l-90 -130l90 -130v260zM140 133h265v1l-133 191l-132 -191v-1z" />
    <glyph glyph-name=".notdef" horiz-adv-x="534" 
d="M70 686h404v-622h-404v0v622zM230 386l-90 130v-260zM155 616l117 -169l117 169h-234zM405 516l-90 -130l90 -130v260zM140 133h265v1l-133 191l-132 -191v-1z" />
    <glyph glyph-name=".null" horiz-adv-x="0" 
 />
    <glyph glyph-name="nonmarkingreturn" horiz-adv-x="500" 
 />
    <glyph glyph-name="space" unicode=" " horiz-adv-x="428" 
 />
    <glyph glyph-name="exclam" unicode="!" horiz-adv-x="221" 
d="M147 94v-94h-70v94h70zM70 750h84l-7 -375l-14 -194h-42l-14 194z" />
    <glyph glyph-name="quotedbl" unicode="&#x22;" horiz-adv-x="212" 
d="M30 749h61l-6 -101l-11 -52h-27l-11 52zM112 749h61l-6 -101l-11 -52h-27l-12 52z" />
    <glyph glyph-name="numbersign" unicode="#" horiz-adv-x="649" 
d="M599 447h-114l-39 -144h115l-19 -70h-114l-62 -233h-70l62 233h-144l-62 -233h-69l61 233h-114l18 70h115l38 144h-114l18 70h115l61 232h70l-62 -232h144l62 232h70l-62 -232h115zM377 303l38 144h-144l-38 -144h144z" />
    <glyph glyph-name="dollar" unicode="$" horiz-adv-x="603" 
d="M307 406q49 -10 96 -22.5t84.5 -34.5t60.5 -57.5t23 -92.5q0 -91 -62 -144.5t-174 -61.5v-71h-70v71q-112 8 -173.5 61.5t-61.5 144.5h70q0 -45 20.5 -72t51 -42t65.5 -19.5t63 -4.5t63 4.5t65.5 19.5t51.5 42t21 72q0 31 -10.5 51.5t-34.5 36t-64 27t-99 24.5
q-48 10 -95.5 22.5t-84.5 34.5t-60 58t-23 93q0 91 61.5 144.5t173.5 61.5v76h70v-76q112 -8 174 -61.5t62 -144.5h-70q0 45 -21 72t-51.5 41.5t-65.5 19t-63 4.5t-63 -4.5t-65.5 -19t-51 -41.5t-20.5 -72q0 -31 10.5 -52t35 -36.5t64 -27.5t97.5 -24z" />
    <glyph glyph-name="ampersand" unicode="&#x26;" horiz-adv-x="773" 
d="M586 144q21 -19 48.5 -44t52.5 -47t42.5 -37.5l17.5 -15.5h-104l-8.5 7t-22 19.5t-32 29t-39.5 35.5q-47 -45 -110 -71t-133 -26q-128 0 -199 54.5t-71 152.5q0 31 6.5 57.5t25 52.5t52 52.5t87.5 56.5q-35 42 -52.5 84.5t-17.5 99.5q0 22 9 48.5t29.5 49.5t52.5 38.5
t78 15.5q43 0 74.5 -15t51.5 -37.5t30 -49t10 -50.5q0 -41 -10 -70.5t-29.5 -52t-47.5 -41.5t-64 -38l221 -210q14 24 22 50t8 53h70q0 -41 -12.5 -79t-35.5 -72zM198 604q0 -44 15.5 -78t49.5 -72q39 21 64.5 37t40 32t20.5 35t6 46q0 8 -4 21.5t-14.5 27t-29 23.5
t-48.5 10q-37 0 -57.5 -12.5t-30 -28t-11 -28.5zM298 63q55 0 104 20.5t87 55.5l-240 228q-51 -28 -80.5 -51.5t-45.5 -43.5t-20.5 -37.5t-4.5 -33.5q0 -45 20.5 -72t51 -42t65.5 -19.5t63 -4.5z" />
    <glyph glyph-name="quotesingle" unicode="'" horiz-adv-x="124" 
d="M30 749h61l-6 -101l-11 -52h-27l-11 52l-6 101v0z" />
    <glyph glyph-name="parenleft" unicode="(" horiz-adv-x="295" 
d="M140 280q0 -171 40 -296.5t116 -203.5h-92q-134 179 -134 500q0 322 134 500h92q-76 -78 -116 -203.5t-40 -296.5z" />
    <glyph glyph-name="parenright" unicode=")" horiz-adv-x="281" 
d="M156 280q0 171 -40 296.5t-116 203.5h92q134 -178 134 -500q0 -321 -134 -500h-92q76 78 116 203.5t40 296.5z" />
    <glyph glyph-name="asterisk" unicode="*" horiz-adv-x="382" 
d="M352 607l-104 -34l64 -89l-56 -41l-65 89l-65 -89l-56 41l65 89l-105 34l22 66l104 -34v110h70v-110l105 34l21 -66v0z" />
    <glyph glyph-name="plus" unicode="+" horiz-adv-x="470" 
d="M437 363v-70h-169v-168h-69v168h-169v70h169v169h69v-169h169v0z" />
    <glyph glyph-name="comma" unicode="," horiz-adv-x="97" 
d="M70 94v-94q0 -19 -4 -36q-3 -15 -10 -30t-20 -23l-25 26q4 4 8 12q3 7 6 19t3 32h-28v94h70z" />
    <glyph glyph-name="hyphen" unicode="-" horiz-adv-x="470" 
d="M30 300h407v-69h-407v69v0z" />
    <glyph glyph-name="period" unicode="." horiz-adv-x="138" 
d="M100 94v-94h-70v94h70v0z" />
    <glyph glyph-name="slash" unicode="/" horiz-adv-x="414" 
d="M397 780h78l-457 -930h-78l457 930v0z" />
    <glyph glyph-name="zero" unicode="0" horiz-adv-x="663" 
d="M330 -6q-71 0 -126.5 26t-94 75t-59 119.5t-20.5 160.5q0 89 20.5 160t59 120t94 75t126.5 26q70 0 125.5 -26t94.5 -75t59.5 -120t20.5 -160q0 -90 -20.5 -160.5t-59.5 -119.5t-94.5 -75t-125.5 -26zM330 686q-112 0 -171 -80t-59 -231q0 -152 59 -232t171 -80t171 80
t59 232q0 151 -59 231t-171 80z" />
    <glyph glyph-name="one" unicode="1" horiz-adv-x="267" 
d="M174 747q21 -10 21 -32v-715h-70v635l-53 -50v96l65 59q8 8 18 9.5t19 -2.5z" />
    <glyph glyph-name="two" unicode="2" horiz-adv-x="631" 
d="M330 314q-52 -19 -90 -37.5t-64 -45.5t-40 -65t-17 -96h462l-21 -70h-477q-14 0 -24.5 10.5t-10.5 24.5q0 88 19 145t53.5 94.5t81.5 61t104 43.5q58 21 98.5 38t66 35.5t37 41t11.5 54.5q0 45 -21 72t-51.5 42t-65.5 19.5t-63 4.5t-63 -4.5t-65.5 -19.5t-51 -42
t-20.5 -72h-70q0 98 71 153t199 55t199 -55t71 -153q0 -53 -21 -89.5t-56 -62.5t-82 -45t-99 -37z" />
    <glyph glyph-name="three" unicode="3" horiz-adv-x="658" 
d="M505 410q60 -28 91.5 -76.5t31.5 -114.5q0 -53 -20.5 -94.5t-59.5 -70.5t-94.5 -44.5t-125.5 -15.5q-91 0 -157 25t-103 74q-40 52 -40 126h70q0 -50 25 -84q26 -35 79 -53.5t126 -18.5q32 0 72 5.5t75 22t59 47t24 81.5t-19.5 81.5t-49.5 47t-66 21.5t-68 5l-21 70
q27 0 61 4t64 16.5t50 36.5t20 64q0 39 -20 63t-50 37t-64 17t-61 4t-61 -4t-64 -17t-50 -37t-20 -63h-70q0 90 70 140.5t195 50.5t195 -50.5t70 -140.5q0 -106 -94 -155z" />
    <glyph glyph-name="four" unicode="4" horiz-adv-x="654" 
d="M502 0h-69v181h-368q-14 0 -24.5 10.5t-10.5 24.5v9q0 12 8 22l403 490q15 18 38 10q11 -4 17 -12.5t6 -19.5v-464h82l-21 -70h-61v-181zM131 251h302v366z" />
    <glyph glyph-name="five" unicode="5" horiz-adv-x="626" 
d="M312 444q133 0 204.5 -59.5t71.5 -165.5t-71.5 -165.5t-204.5 -59.5q-86 0 -148 25t-97 75q-37 52 -37 125h70q0 -51 24 -85t72.5 -52.5t115.5 -18.5q30 0 66.5 5.5t69 22t54.5 47t22 81.5t-22 81.5t-54.5 47t-69 21.5t-66.5 5h-217q-17 0 -27 13q-12 13 -7 30l69 305
q2 12 11.5 19.5t22.5 7.5h403l-21 -69h-354l-54 -236h174v0z" />
    <glyph glyph-name="six" unicode="6" horiz-adv-x="718" 
d="M362 -6q-73 0 -131 18t-98 52t-61 83t-21 111v200q0 70 21.5 125.5t62.5 93.5t100 58.5t134 20.5q123 0 205 -56l-40 -58q-64 44 -165 44q-35 0 -78 -8t-81 -32t-63.5 -69t-25.5 -119v-17q40 40 101 61t140 21q73 0 131 -18t98 -52t61 -83.5t21 -111.5t-21 -111t-61 -83
t-98 -52t-131 -18zM362 453q-34 0 -76 -6.5t-78.5 -27t-61.5 -59t-25 -102.5q0 -42 11.5 -73t31 -52.5t44.5 -35t51.5 -21.5t53 -10.5t49.5 -2.5q34 0 75.5 6.5t78.5 27.5t62 59.5t25 101.5q0 64 -25 102.5t-62 59t-78.5 27t-75.5 6.5z" />
    <glyph glyph-name="seven" unicode="7" horiz-adv-x="649" 
d="M199 0h-81l395 679h-462l-21 70h544q21 0 30 -17q11 -18 0 -35z" />
    <glyph glyph-name="eight" unicode="8" horiz-adv-x="658" 
d="M505 410q60 -28 91.5 -76.5t31.5 -114.5q0 -53 -20.5 -94.5t-59 -70.5t-94.5 -44.5t-126 -15.5q-71 0 -126.5 15.5t-94 44.5t-59 70.5t-20.5 94.5q0 68 33.5 117t96.5 77q-89 49 -89 152q0 90 70 140.5t195 50.5t195 -50.5t70 -140.5q0 -106 -94 -155zM334 686
q-27 0 -61 -4t-64 -17t-50 -37t-20 -63q0 -40 20 -64t50 -36.5t64 -16.5t61 -4t61 4t64 16.5t50.5 36.5t20.5 64q0 39 -20.5 63t-50.5 37t-64 17t-61 4zM328 63q32 0 72 5.5t75 22t59 47t24 81.5t-24 81.5t-59 47t-75 21.5t-72 5t-72 -5t-75 -21.5t-59 -47t-24 -81.5
t24 -81.5t59 -47t75 -22t72 -5.5z" />
    <glyph glyph-name="nine" unicode="9" horiz-adv-x="718" 
d="M362 756q73 0 131 -18t98 -52t61 -83.5t21 -111.5v-200q0 -70 -21.5 -125t-62.5 -93.5t-100 -58.5t-134 -20q-123 0 -205 56l40 57q64 -44 165 -44q35 0 78 8t81 32t63.5 69t25.5 119v18q-40 -40 -101 -61t-140 -21q-73 0 -131 18t-98 52t-61 83t-21 111t21 111.5
t61 83.5t98 52t131 18zM362 296q34 0 75.5 6.5t78.5 27.5t62 59.5t25 101.5q0 64 -25 102.5t-62 59t-78.5 27t-75.5 6.5t-76 -6.5t-78.5 -27t-61.5 -59t-25 -102.5q0 -42 11.5 -73t31 -52.5t44.5 -35t51.5 -21.5t53 -10.5t49.5 -2.5z" />
    <glyph glyph-name="colon" unicode=":" horiz-adv-x="138" 
d="M100 94v-94h-70v94h70zM100 472v-94h-70v94h70z" />
    <glyph glyph-name="semicolon" unicode=";" horiz-adv-x="138" 
d="M100 378h-70v94h70v-94zM100 94v-94q0 -19 -4 -36q-3 -15 -10 -30t-20 -23l-25 26q4 4 8 12q3 7 6 19t3 32h-28v94h70z" />
    <glyph glyph-name="less" unicode="&#x3c;" horiz-adv-x="649" 
d="M50 297l505 235v-77l-407 -189l407 -190v-77l-505 235q-20 10 -20 32q0 10 5.5 18.5t14.5 12.5z" />
    <glyph glyph-name="equal" unicode="=" horiz-adv-x="470" 
d="M30 383h407v-69h-407v69zM30 221h407v-69h-407v69z" />
    <glyph glyph-name="greater" unicode="&#x3e;" horiz-adv-x="635" 
d="M595 297q9 -4 14.5 -12.5t5.5 -18.5q0 -22 -20 -32l-505 -235v77l408 190l-408 189v77l505 -235v0z" />
    <glyph glyph-name="question" unicode="?" horiz-adv-x="543" 
d="M306 0h-69v94h69v-94zM268 755q112 0 175.5 -55t63.5 -152q0 -39 -7.5 -66t-21.5 -49t-35.5 -42t-48.5 -43q-5 -5 -11 -9.5t-12 -9.5q-27 -21 -49.5 -55.5t-22.5 -92.5h-55q0 42 7.5 74.5t19.5 57.5t27.5 42.5t30.5 29.5q5 4 10 7.5t10 7.5q25 22 42 38t27.5 31.5
t14.5 33.5t4 45q0 43 -15.5 70t-40 42t-54.5 20.5t-59 5.5t-59 -5.5t-54 -20.5t-39.5 -42t-15.5 -70h-70q0 97 63.5 152t174.5 55z" />
    <glyph glyph-name="at" unicode="@" horiz-adv-x="865" 
d="M738 644q48 -56 68 -126t9 -148q-3 -24 -9.5 -48t-15.5 -47q-38 -103 -122 -85q-31 8 -50 27q-26 -28 -75.5 -44t-134.5 -16q-26 0 -53.5 2t-54 8t-49 17t-38.5 29q-11 12 -20.5 34.5t-4.5 56.5q7 49 28 77t53 42.5t73.5 18t89.5 3.5h172q-3 47 -26 71q-22 25 -54 32.5
t-59 7.5q-69 0 -115 -31l-29 -20l-40 58l29 19q65 44 155 44q110 0 166 -64q55 -64 40 -175l-12 -86q-3 -13 4 -26.5t19 -16.5q6 -1 11 -1t10.5 4t10.5 13t11 25v1q15 38 21 79q9 63 -6.5 119t-53.5 100q-38 43 -90 65.5t-114 22.5q-65 0 -126 -25t-110 -68t-81.5 -100.5
t-41.5 -122.5q-9 -63 6.5 -119t53.5 -99t90 -66t113 -23q68 0 133 27.5t117 78.5l48 -51q-62 -60 -139.5 -92t-158.5 -32q-77 0 -142.5 28.5t-113.5 83.5t-67.5 125t-8.5 148q10 78 49.5 146.5t97.5 120t130.5 81t150.5 29.5q77 0 142.5 -29t113.5 -83zM599 365q0 7 1 11
h-168q-53 0 -86 -4t-51.5 -13.5t-26.5 -25t-11 -38.5q-2 -16 1 -24t7 -13q10 -12 30 -18t41.5 -9t41 -3.5t30.5 -0.5q66 0 102.5 9.5t55 27.5t24 43.5t9.5 57.5z" />
    <glyph glyph-name="A" unicode="A" horiz-adv-x="852" 
d="M641 202h-434l-97 -202h-79l362 736q10 20 31 20t31 -20l364 -736h-77zM607 272l-183 370l-183 -370h366z" />
    <glyph glyph-name="B" unicode="B" horiz-adv-x="700" 
d="M549 418q52 -29 84 -80.5t32 -114.5q0 -45 -17 -85.5t-47 -70.5t-69.5 -48t-84.5 -19h-322q-14 0 -24.5 10.5t-10.5 24.5v680q0 14 10.5 24t24.5 10h306q39 0 72.5 -14.5t59 -40t40 -59t14.5 -72.5q0 -44 -18 -81.5t-50 -63.5zM160 446h271q24 0 45.5 9t37 25t25 37.5
t9.5 45.5t-9.5 45.5t-25 37t-37 25t-45.5 9.5h-271v-234zM442 70q31 0 59 12t49 32.5t33 48.5t12 60q0 31 -12 59t-33 49t-49 33t-59 12h-282v-306h282z" />
    <glyph glyph-name="C" unicode="C" horiz-adv-x="727" 
d="M690 91q-102 -97 -277 -97q-90 0 -160.5 26t-119.5 75t-75 119.5t-26 160.5q0 89 26 160t75 120t119.5 75t160.5 26q150 0 247 -73l-42 -56q-79 59 -205 59q-152 0 -231.5 -80t-79.5 -231q0 -152 79.5 -232t231.5 -80q72 0 130 20t98 59z" />
    <glyph glyph-name="D" unicode="D" horiz-adv-x="723" 
d="M306 0h-181q-14 0 -24.5 10.5t-10.5 24.5v680q0 14 10.5 24t24.5 10h187q88 0 157.5 -25.5t117.5 -73.5t73.5 -117.5t25.5 -157.5q0 -87 -26.5 -156t-76 -118t-119.5 -75t-158 -26zM160 70h146q149 0 229.5 79.5t80.5 225.5q0 149 -78 227t-226 78h-152v-610z" />
    <glyph glyph-name="E" unicode="E" horiz-adv-x="552" 
d="M120 680v-234h328l-21 -70h-307v-306h402v-70h-437q-14 0 -24.5 10.5t-10.5 24.5v680q0 14 10.5 24t24.5 10h437v-69h-402z" />
    <glyph glyph-name="F" unicode="F" horiz-adv-x="575" 
d="M142 680v-234h328l-21 -70h-307v-376h-70v715q0 14 10.5 24t24.5 10h437v-69h-402z" />
    <glyph glyph-name="G" unicode="G" horiz-adv-x="778" 
d="M696 410v-293q0 -14 -10 -26q-102 -97 -277 -97q-90 0 -160.5 26t-119.5 75t-75 119.5t-26 160.5q0 89 26 160t75 120t119.5 75t160.5 26q150 0 247 -73l-42 -56q-79 59 -205 59q-152 0 -231.5 -80t-79.5 -231q0 -152 79.5 -232t231.5 -80q137 0 217 69v257z" />
    <glyph glyph-name="H" unicode="H" horiz-adv-x="709" 
d="M562 749h70v-749h-70v376h-402v-376h-70v749h70v-303h402v303v0z" />
    <glyph glyph-name="I" unicode="I" horiz-adv-x="253" 
d="M90 749h70v-749h-70v749v0z" />
    <glyph glyph-name="J" unicode="J" horiz-adv-x="230" 
d="M54 -248l-54 44l22 27q64 79 64 212v714h69v-714q0 -159 -79 -256z" />
    <glyph glyph-name="K" unicode="K" horiz-adv-x="649" 
d="M620 749l-326 -343l326 -405h-90l-284 354l-86 -90v-265h-70v749h70v-383l364 383h96v0z" />
    <glyph glyph-name="L" unicode="L" horiz-adv-x="626" 
d="M583 70l-21 -70h-437q-14 0 -24.5 10.5t-10.5 24.5v714h70v-679h423z" />
    <glyph glyph-name="M" unicode="M" horiz-adv-x="916" 
d="M837 0h-70v596l-274 -452q-5 -8 -13 -12.5t-17 -4.5q-19 0 -30 17l-273 452v-596h-70v721q0 26 25 33q11 4 22.5 -0.5t17.5 -14.5l308 -510l309 510q6 10 17 14.5t22 0.5q11 -3 18.5 -12t7.5 -21v-721z" />
    <glyph glyph-name="N" unicode="N" horiz-adv-x="718" 
d="M609 -6q-18 0 -28 15l-421 601v-610h-70v721q0 11 6.5 20.5t17.5 12.5q11 4 22 0t17 -13l422 -602v610h69v-720q0 -12 -6.5 -21t-17.5 -13q-4 -1 -11 -1z" />
    <glyph glyph-name="O" unicode="O" horiz-adv-x="824" 
d="M409 -6q-90 0 -160.5 26t-119.5 75t-75 119.5t-26 160.5q0 89 26 160t75 120t119.5 75t160.5 26t160.5 -26t119.5 -75t75 -120t26 -160q0 -90 -26 -160.5t-75 -119.5t-119.5 -75t-160.5 -26zM409 686q-152 0 -231.5 -80t-79.5 -231q0 -152 79.5 -232t231.5 -80t231.5 80
t79.5 232q0 151 -79.5 231t-231.5 80z" />
    <glyph glyph-name="P" unicode="P" horiz-adv-x="677" 
d="M425 749q45 -1 84.5 -18.5t69.5 -47.5t47 -70.5t17 -85.5q0 -46 -17.5 -86.5t-48 -71t-71 -48t-86.5 -17.5h-282v-304h-70v715q0 14 10.5 24t24.5 10h320h2zM420 373q31 0 59 12t49 33t33 49t12 60q0 31 -12 59t-33 49t-49 33t-59 12h-282v-307h282z" />
    <glyph glyph-name="Q" unicode="Q" horiz-adv-x="829" 
d="M724 0l-106 39q-84 -45 -204 -45q-146 0 -240.5 67t-126.5 191l-4 2l2 7q-12 52 -12 114q0 89 26 160t75 120t119.5 75t160.5 26t160.5 -26t119.5 -75t75 -120t26 -160q0 -94 -27.5 -166t-80.5 -121l108 -40zM414 686q-152 0 -231.5 -80t-79.5 -231q0 -19 1 -36.5
t4 -34.5l503 -188q114 78 114 259q0 151 -79.5 231t-231.5 80zM414 63q29 0 55.5 3.5t50.5 9.5l-389 145q34 -78 105.5 -118t177.5 -40z" />
    <glyph glyph-name="R" unicode="R" horiz-adv-x="700" 
d="M613 0l-243 302h-230v-302h-70v713q0 14 10.5 24.5t24.5 10.5h320h2q45 -1 84.5 -19t69.5 -48t47 -70.5t17 -85.5q0 -42 -14.5 -79t-40 -66.5t-59.5 -49t-74 -25.5l246 -305h-90zM140 372h282q31 0 59 12t49 33t33 48.5t12 59.5t-12 60t-33 48.5t-49 32.5t-59 12h-282
v-306z" />
    <glyph glyph-name="S" unicode="S" horiz-adv-x="608" 
d="M310 408q48 -10 95.5 -22.5t84.5 -34.5t60 -57.5t23 -92.5q0 -98 -71.5 -152.5t-199.5 -54.5t-199 54.5t-71 152.5h70q0 -45 20.5 -72t51 -42t65.5 -19.5t63 -4.5t63 4.5t65.5 19.5t51.5 42t21 72q0 31 -10 52t-34 36t-64 27t-100 24q-48 10 -95.5 22.5t-84.5 34.5
t-60 58t-23 93q0 98 71 153t199 55t199.5 -55t71.5 -153h-70q0 45 -21 72t-51.5 42t-65.5 19.5t-63 4.5t-63 -4.5t-65.5 -19.5t-51 -42t-20.5 -72q0 -31 10.5 -52t35 -36.5t64 -27.5t98.5 -24z" />
    <glyph glyph-name="T" unicode="T" horiz-adv-x="608" 
d="M30 749h542v-69h-236v-680h-70v680h-236v69v0z" />
    <glyph glyph-name="U" unicode="U" horiz-adv-x="640" 
d="M593 749v-548q0 -98 -71.5 -152.5t-199.5 -54.5t-199 54.5t-71 152.5v548h70v-548q0 -45 20.5 -72t51 -42t65.5 -19.5t63 -4.5t63 4.5t65.5 19.5t51.5 42t21 72v548h70z" />
    <glyph glyph-name="V" unicode="V" horiz-adv-x="773" 
d="M388 -6q-11 0 -19.5 5.5t-12.5 14.5l-326 735h78l280 -634l281 634h76l-325 -735q-10 -20 -32 -20z" />
    <glyph glyph-name="W" unicode="W" horiz-adv-x="1123" 
d="M1091 749l-325 -735q-10 -20 -32 -20t-32 20l-141 319l-141 -319q-10 -20 -32 -20q-11 0 -19.5 5.5t-12.5 14.5l-326 735h78l280 -634l135 304l-63 139h78l196 -443l281 634h76z" />
    <glyph glyph-name="X" unicode="X" horiz-adv-x="713" 
d="M355 347l-240 -347h-85l282 408l-237 341h85l195 -280l195 280h85l-238 -341l282 -408h-84l-240 347v0z" />
    <glyph glyph-name="Y" unicode="Y" horiz-adv-x="713" 
d="M679 749l-290 -418v-331h-69v334l-290 415h85l240 -346l239 346h85v0z" />
    <glyph glyph-name="Z" unicode="Z" horiz-adv-x="534" 
d="M481 0h-416q-20 0 -30 18q-12 17 0 35l371 627h-355v69h416q22 0 31 -17q10 -18 -1 -35l-371 -627h355v-70z" />
    <glyph glyph-name="bracketleft" unicode="[" horiz-adv-x="304" 
d="M304 711h-144v-861h144v-70h-214v1000h214v-69v0z" />
    <glyph glyph-name="backslash" unicode="\" horiz-adv-x="419" 
d="M18 780l457 -930h-78l-457 930h78v0z" />
    <glyph glyph-name="bracketright" unicode="]" horiz-adv-x="295" 
d="M0 711v69h214v-1000h-214v70h145v861h-145v0z" />
    <glyph glyph-name="asciicircum" unicode="^" horiz-adv-x="276" 
d="M110 623h-80l77 118q10 15 28 15t28 -15l77 -118h-80l-25 38z" />
    <glyph glyph-name="underscore" unicode="_" horiz-adv-x="470" 
d="M30 -23h407v-69h-407v69v0z" />
    <glyph glyph-name="grave" unicode="`" horiz-adv-x="198" 
d="M106 617l-76 132h82l56 -132h-62v0z" />
    <glyph glyph-name="a" unicode="a" horiz-adv-x="635" 
d="M302 543q130 0 202 -72.5t72 -201.5v-120q0 -17 -8 -43.5t-36.5 -51t-82.5 -42t-147 -17.5t-147 17.5t-82.5 42t-36.5 51t-8 43.5q0 61 19 96t51 52.5t75.5 22.5t93.5 5h234q-14 72 -64 110t-135 38q-86 0 -139 -41l-43 55q71 56 182 56zM506 255h-204q-67 0 -107.5 -3.5
t-62 -14.5t-28 -32t-6.5 -56q0 -23 18 -39t47 -26t65.5 -14.5t73.5 -4.5t73.5 4.5t65.5 14.5t47 26t18 39v106z" />
    <glyph glyph-name="b" unicode="b" horiz-adv-x="654" 
d="M344 542q129 0 201 -72t72 -202q0 -129 -72 -201t-201 -72q-130 0 -202 72t-72 201v510h70v-311q35 36 86.5 55.5t117.5 19.5zM344 64q99 0 151.5 52.5t52.5 151.5q0 100 -52.5 152t-151.5 52q-100 0 -152 -52t-52 -152q0 -99 52 -151.5t152 -52.5z" />
    <glyph glyph-name="c" unicode="c" horiz-adv-x="534" 
d="M501 65q-36 -35 -86.5 -52.5t-112.5 -17.5q-130 0 -202 72t-72 202q0 129 72 201.5t202 72.5q107 0 177 -53l-42 -56q-51 39 -135 39q-100 0 -152 -52.5t-52 -151.5q0 -100 52 -152t152 -52q97 0 150 51z" />
    <glyph glyph-name="d" unicode="d" horiz-adv-x="649" 
d="M30 268q0 130 72 202t202 72q66 0 117.5 -19.5t86.5 -55.5v311h69v-510q0 -129 -72 -201t-201 -72q-130 0 -202 72t-72 201zM100 268q0 -99 52 -151.5t152 -52.5q99 0 151.5 52.5t52.5 151.5q0 100 -52.5 152t-151.5 52q-100 0 -152 -52t-52 -152z" />
    <glyph glyph-name="e" unicode="e" 
d="M306 543q130 0 202 -72.5t72 -201.5v-1q0 -15 -10.5 -25t-24.5 -10h-441q9 -82 60 -125t141 -43q97 0 149 50l49 -50q-73 -70 -198 -70q-129 0 -201 72t-72 201v1q0 129 72 201.5t202 72.5zM509 303q-9 83 -60.5 126.5t-142.5 43.5t-142.5 -43.5t-59.5 -126.5h405z" />
    <glyph glyph-name="f" unicode="f" horiz-adv-x="373" 
d="M192 634q-52 -52 -52 -151v-99h203l-21 -70h-182v-314h-70v483q0 129 72 201t201 72v-70q-97 0 -151 -52z" />
    <glyph glyph-name="g" unicode="g" horiz-adv-x="644" 
d="M302 543q130 0 202 -72.5t72 -201.5v-216q0 -129 -72.5 -201t-201.5 -72v70q99 0 151 52t52 151v16q-72 -74 -203 -74q-130 0 -202 72t-72 202q0 129 72 201.5t202 72.5zM506 269q0 100 -52 152t-152 52t-152 -52t-52 -152t52 -152t152 -52q93 0 144.5 45t58.5 132z" />
    <glyph glyph-name="h" unicode="h" horiz-adv-x="640" 
d="M324 542q59 0 106 -19t79.5 -54t50 -86t17.5 -115v-268h-70v268q0 99 -47 151.5t-136 52.5q-90 0 -137 -52.5t-47 -151.5v-268h-70v779h70v-307q32 34 78.5 52t105.5 18z" />
    <glyph glyph-name="i" unicode="i" horiz-adv-x="244" 
d="M160 0h-70v532h70v-532v0zM160 779v-94h-70v94h70z" />
    <glyph glyph-name="j" unicode="j" horiz-adv-x="221" 
d="M146 532v-497q0 -158 -80 -256l-22 -27l-54 44l22 27q64 79 64 212v497h70zM146 685h-70v94h70v-94z" />
    <glyph glyph-name="k" unicode="k" horiz-adv-x="502" 
d="M503 532l-232 -245l231 -287h-89l-190 236l-85 -90v-146h-70v779h70v-531l269 284h96v0z" />
    <glyph glyph-name="l" unicode="l" horiz-adv-x="249" 
d="M160 0h-70v779h70v-779v0z" />
    <glyph glyph-name="m" unicode="m" horiz-adv-x="921" 
d="M644 542q101 0 157.5 -72.5t56.5 -201.5v-268h-69v268q0 28 -5 63.5t-20.5 67t-44 52.5t-75.5 21t-75.5 -21t-44 -52.5t-20.5 -67t-5 -63.5v-268h-70v268q0 28 -5 63.5t-20 67t-43.5 52.5t-75.5 21t-75.5 -21t-44 -52.5t-20.5 -67t-5 -63.5v-268h-70v268
q0 129 56.5 201.5t158.5 72.5q62 0 107 -27.5t72 -79.5q27 52 72.5 79.5t107.5 27.5z" />
    <glyph glyph-name="n" unicode="n" 
d="M554 0h-70v268q0 99 -44 151.5t-128 52.5t-128 -52.5t-44 -151.5v-268h-70v268q0 129 63.5 201.5t178.5 72.5q114 0 178 -72.5t64 -201.5v-268z" />
    <glyph glyph-name="o" unicode="o" horiz-adv-x="612" 
d="M302 -5q-130 0 -202 72t-72 202q0 129 72 201.5t202 72.5t202 -72.5t72 -201.5q0 -130 -72 -202t-202 -72zM302 473q-100 0 -152 -52t-52 -152t52 -152t152 -52t152 52t52 152t-52 152t-152 52z" />
    <glyph glyph-name="p" unicode="p" horiz-adv-x="649" 
d="M346 542q129 0 201 -72t72 -201q0 -130 -72 -202t-201 -72q-66 0 -117.5 19.5t-86.5 56.5v-291l-70 21v468q0 129 72 201t202 72zM346 65q99 0 151.5 52t52.5 152q0 99 -52.5 151.5t-151.5 52.5q-100 0 -152 -52.5t-52 -151.5q0 -100 52 -152t152 -52z" />
    <glyph glyph-name="q" unicode="q" horiz-adv-x="663" 
d="M34 269q0 129 72 201t202 72q129 0 201 -72t72 -201v-489l-69 21v270q-35 -37 -86.5 -56.5t-117.5 -19.5q-130 0 -202 72t-72 202zM104 269q0 -100 52 -152t152 -52q99 0 151.5 52t52.5 152q0 99 -52.5 151.5t-151.5 52.5q-100 0 -152 -52.5t-52 -151.5z" />
    <glyph glyph-name="r" unicode="r" horiz-adv-x="354" 
d="M68 268q0 129 67 201.5t187 72.5v-70q-90 0 -137 -52.5t-47 -151.5v-268h-70v268v0z" />
    <glyph glyph-name="s" unicode="s" horiz-adv-x="456" 
d="M233 302q33 -7 67 -15.5t61.5 -25t44.5 -43.5t17 -69q0 -72 -53 -113t-144 -41q-92 0 -145 41t-53 113h70q0 -26 11.5 -42.5t30 -26t41.5 -13t45 -3.5t44.5 3.5t41 13t30.5 26t12 42.5q0 18 -5.5 30t-20.5 21.5t-41.5 17t-68.5 16.5q-33 7 -67 16t-61.5 25.5t-44.5 43.5
t-17 70q0 72 53 113t145 41q91 0 144 -41t53 -113h-69q0 26 -12 42.5t-30.5 25.5t-41 12.5t-44.5 3.5t-45 -3.5t-41.5 -12.5t-30 -25.5t-11.5 -42.5q0 -17 4.5 -29t19 -21.5t41 -18.5t70.5 -18z" />
    <glyph glyph-name="t" unicode="t" horiz-adv-x="428" 
d="M394 536v-70h-147v-466h-70v466h-146v70h146v243h70v-243h147v0z" />
    <glyph glyph-name="u" unicode="u" horiz-adv-x="543" 
d="M276 -5q-106 0 -165 72t-59 202v263h70v-263q0 -29 5 -64t21.5 -66.5t47 -52.5t80.5 -21t80.5 21t47 52.5t21.5 66.5t5 64v263h70v-263q0 -130 -59 -202t-165 -72z" />
    <glyph glyph-name="v" unicode="v" horiz-adv-x="585" 
d="M474 532h77l-229 -516q-4 -10 -12.5 -15.5t-19.5 -5.5q-22 0 -32 21l-228 516h76l184 -416z" />
    <glyph glyph-name="w" unicode="w" horiz-adv-x="847" 
d="M813 532l-228 -516q-10 -21 -32 -21t-32 21l-100 225l-98 -225q-10 -21 -32 -21q-11 0 -19.5 5.5t-12.5 15.5l-229 516h76l185 -416l92 212l-47 106h77l140 -318l184 416h76z" />
    <glyph glyph-name="x" unicode="x" horiz-adv-x="529" 
d="M263 216l-149 -216h-85l192 277l-177 255h85l134 -194l135 194h84l-176 -255l192 -277h-85l-150 216v0z" />
    <glyph glyph-name="y" unicode="y" horiz-adv-x="589" 
d="M479 532h76l-332 -752h-76l108 244l-225 508h76l186 -421l187 421v0z" />
    <glyph glyph-name="z" unicode="z" horiz-adv-x="506" 
d="M433 0h-308q-20 0 -30 17q-12 18 0 35l243 410h-248v70h308q20 0 31 -18q10 -18 -1 -35l-242 -410h247v-69z" />
    <glyph glyph-name="braceleft" unicode="{" horiz-adv-x="382" 
d="M251 393q0 -40 -11 -67.5t-28 -44.5q17 -18 28 -45.5t11 -67.5v-191q0 -22 3.5 -44.5t14 -40.5t29 -29.5t47.5 -11.5h35v-70h-35q-76 0 -120 52.5t-44 143.5v191q0 78 -56 78h-35v69h35q56 0 56 78v192q0 91 44 143t120 52h35v-69h-35q-29 0 -47.5 -11.5t-29 -30t-14 -41
t-3.5 -43.5v-192z" />
    <glyph glyph-name="bar" unicode="|" horiz-adv-x="239" 
d="M160 -150h-70v930h70v-930v0z" />
    <glyph glyph-name="braceright" unicode="}" horiz-adv-x="364" 
d="M129 585q0 21 -3.5 43.5t-14 41t-29 30t-47.5 11.5h-35v69h35q76 0 120 -52t44 -143v-192q0 -78 56 -78h35v-69h-35q-56 0 -56 -78v-191q0 -91 -44 -143.5t-120 -52.5h-35v70h35q29 0 47.5 11.5t29 29.5t14 40.5t3.5 44.5v191q0 40 11 67.5t28 45.5q-17 17 -28 44.5
t-11 67.5v192z" />
    <glyph glyph-name="asciitilde" unicode="~" horiz-adv-x="359" 
d="M234 621q-20 0 -36.5 9t-35.5 23q-5 4 -10 7.5t-10 8.5q-17 11 -27 8q-10 -2 -16.5 -11.5t-7.5 -11.5l-61 29q1 2 5.5 10t12.5 17.5t20.5 18.5t28.5 13q14 4 35.5 2t47.5 -20q7 -5 12.5 -9t10.5 -8q10 -8 18 -13.5t13 -5.5q4 0 15 5.5t34 25.5l43 -52
q-29 -25 -51.5 -35.5t-40.5 -10.5z" />
    <glyph glyph-name="nonbreakingspace" unicode="&#xa0;" horiz-adv-x="414" 
 />
    <glyph glyph-name="exclamdown" unicode="&#xa1;" horiz-adv-x="226" 
d="M77 438v94h70v-94h-70zM154 -218h-84l7 375l14 194h42l14 -194z" />
    <glyph glyph-name="cent" unicode="&#xa2;" horiz-adv-x="534" 
d="M500 174q-35 -35 -85.5 -53t-111.5 -18h-3v-102h-70v109q-96 20 -148 88.5t-52 177.5t52 177.5t148 88.5v109h70v-103h3q53 0 97 -13t79 -39l-42 -55q-52 38 -134 38q-99 0 -151 -52t-52 -151t52 -151t151 -52q95 0 149 51l48 -50v0z" />
    <glyph glyph-name="sterling" unicode="&#xa3;" horiz-adv-x="497" 
d="M467 70v-70h-402q-22 0 -31 19q-10 19 2 36q14 20 27.5 37.5t26.5 32.5q22 28 38 50.5t23 44t4 44.5t-18 54q-2 5 -5 10h-102v70h65q-7 14 -12 27.5t-8 30t-4.5 37t-1.5 48.5q0 45 17 84t46 68t68 46t83 17q41 0 78 -14.5t66 -41.5l26 -24l-73 -28q-20 18 -45 27.5
t-52 9.5q-30 0 -56 -11.5t-45.5 -31t-31 -45.5t-11.5 -56t1.5 -48.5t5 -32.5t10 -26.5t15.5 -29.5l3 -6h213v-70h-177q16 -41 16.5 -74t-10.5 -62.5t-30 -56t-41 -54.5q-3 -3 -9 -11h331z" />
    <glyph glyph-name="currency" unicode="&#xa4;" horiz-adv-x="640" 
d="M584 375q0 -46 -14.5 -86.5t-40.5 -74.5l80 -80l-49 -49l-80 80q-34 -26 -74.5 -40t-85.5 -14q-46 0 -86.5 14t-74.5 40l-80 -80l-49 49l80 80q-26 34 -40 74.5t-14 86.5q0 45 14 86t40 74l-80 80l49 49l80 -80q34 26 74.5 40.5t86.5 14.5q45 0 85.5 -14.5t74.5 -40.5
l80 80l49 -49l-80 -80q26 -33 40.5 -74t14.5 -86zM320 180q40 0 75.5 15.5t61.5 42t41.5 62t15.5 75.5t-15.5 75.5t-41.5 61.5t-61.5 41.5t-75.5 15.5q-41 0 -76.5 -15.5t-61.5 -41.5t-41.5 -61.5t-15.5 -75.5t15.5 -75.5t41.5 -62t61.5 -42t76.5 -15.5z" />
    <glyph glyph-name="yen" unicode="&#xa5;" horiz-adv-x="713" 
d="M679 749l-235 -339h184v-70h-232l-7 -9v-60h239v-70h-239v-201h-69v201h-239v70h239v63l-5 6h-234v70h186l-237 339h85l235 -339h9l235 339h85v0z" />
    <glyph glyph-name="brokenbar" unicode="&#xa6;" horiz-adv-x="235" 
d="M160 421h-70v359h70v-359v0zM160 -150h-70v359h70v-359v0z" />
    <glyph glyph-name="section" unicode="&#xa7;" horiz-adv-x="493" 
d="M458 359q0 -39 -16.5 -69.5t-47.5 -50.5q14 -16 23 -37.5t9 -51.5q0 -72 -53 -113t-145 -41t-145 41t-53 113h70q0 -26 11.5 -42.5t30 -26t41.5 -13t45 -3.5t44.5 3.5t41 13t30.5 26t12 42.5q0 18 -5.5 30t-20.5 21.5t-41 17.5t-68 17q-34 7 -68 15.5t-61.5 25
t-44.5 43.5t-17 70q0 42 15 72.5t47 50.5q-14 16 -22 36.5t-8 49.5q0 72 53 113.5t145 41.5t145 -41.5t53 -113.5h-70q0 26 -11.5 42.5t-30 26t-41.5 13t-45 3.5t-44.5 -3.5t-41 -13t-30.5 -26t-12 -42.5q0 -17 5 -29t19 -21.5t40.5 -18t70.5 -17.5q34 -7 68 -16t61.5 -25.5
t44.5 -43t17 -69.5zM100 390q0 -17 4.5 -29t19 -21.5t41 -18t70.5 -17.5l44 -10t43 -12q27 8 46.5 25.5t19.5 51.5q0 18 -5.5 30t-20.5 21.5t-41 17.5t-68 17q-22 5 -44.5 9.5t-43.5 12.5q-27 -8 -46 -25.5t-19 -51.5z" />
    <glyph glyph-name="dieresis" unicode="&#xa8;" horiz-adv-x="295" 
d="M129 683q0 -20 -15 -34.5t-35 -14.5t-34.5 14.5t-14.5 34.5t14.5 34.5t34.5 14.5t35 -14.5t15 -34.5zM256 683q0 -20 -14.5 -34.5t-34.5 -14.5t-34.5 14.5t-14.5 34.5t14.5 34.5t34.5 14.5t34.5 -14.5t14.5 -34.5z" />
    <glyph glyph-name="copyright" unicode="&#xa9;" horiz-adv-x="667" 
d="M437 317l48 -50l-25 -25q-48 -46 -129 -46q-83 0 -131 47.5t-48 131.5q0 83 48 131t131 48q69 0 115 -35l28 -21l-42 -55l-28 20q-27 21 -73 21q-109 0 -109 -109t109 -109q18 0 41 4.5t40 21.5zM333 677q62 0 117 -23.5t96 -64.5t65 -96t24 -118t-24 -118t-65 -96
t-96 -65t-117 -24q-63 0 -118 24t-96 65t-65 96t-24 118t24 118t65 96t96 64.5t118 23.5zM333 142q48 0 90 18.5t73.5 50t50 74t18.5 90.5t-18.5 90.5t-50 74t-73.5 50t-90 18.5t-90.5 -18.5t-74 -50t-50 -74t-18.5 -90.5t18.5 -90.5t50 -74t74 -50t90.5 -18.5z" />
    <glyph glyph-name="ordfeminine" unicode="&#xaa;" horiz-adv-x="387" 
d="M356 482q1 -26 -2 -53.5t-25 -50.5q-37 -38 -137 -38q-15 0 -42 1.5t-54 11t-46.5 29.5t-19.5 58t15.5 59t39 30.5t51.5 11t53 1.5h106q-6 20 -16.5 33t-24.5 20.5t-29.5 10t-30.5 2.5q-43 0 -71 -20l-33 45q40 31 104 31q75 0 118.5 -43.5t43.5 -118.5v-20zM289 417
q9 9 10.5 24.5t0.5 39.5v6h-111q-37 0 -58 -2.5t-31 -8.5t-12 -15t-2 -21q0 -8 3.5 -16t14.5 -14.5t32 -10.5t56 -4q77 0 97 22z" />
    <glyph glyph-name="guillemotleft" unicode="&#xab;" horiz-adv-x="382" 
d="M216 289l168 186v-104l-95 -105l95 -106v-103l-168 185q-9 11 -9 24t9 23zM39 289l168 186v-104l-95 -105l95 -106v-103l-168 185q-9 11 -9 24t9 23z" />
    <glyph glyph-name="logicalnot" unicode="&#xac;" horiz-adv-x="474" 
d="M30 363h407v-170h-69v100h-338v70v0z" />
    <glyph glyph-name="uni00AD" unicode="&#xad;" horiz-adv-x="474" 
d="M30 300h407v-69h-407v69v0z" />
    <glyph glyph-name="registered" unicode="&#xae;" horiz-adv-x="483" 
d="M240 756q43 0 81.5 -16.5t67 -45t45 -67t16.5 -81.5q0 -44 -16.5 -82t-45 -66.5t-67 -45t-81.5 -16.5q-44 0 -82 16.5t-66.5 45t-45 66.5t-16.5 82q0 43 16.5 81.5t45 67t66.5 45t82 16.5zM240 392q36 0 68 15l-55 94h-56v-103q21 -6 43 -6zM267 557q12 0 20.5 8.5
t8.5 21.5q0 12 -8.5 21t-20.5 9h-70v-60h70zM353 441q20 20 30.5 47t10.5 58q0 32 -12 60t-33 49t-49 33t-60 12t-60 -12t-49 -33t-33 -49t-12 -60q0 -36 15 -67t41 -52v218q0 11 8 19t20 8h98h1q35 -1 59 -25.5t24 -59.5q0 -23 -11.5 -42.5t-30.5 -30.5z" />
    <glyph glyph-name="macron" unicode="&#xaf;" horiz-adv-x="470" 
d="M30 780h407v-69h-407v69v0z" />
    <glyph glyph-name="degree" unicode="&#xb0;" horiz-adv-x="262" 
d="M128 642q-41 0 -69.5 28.5t-28.5 69.5q0 20 7.5 38t21 31.5t31.5 21.5t38 8q21 0 39 -8t31.5 -21.5t21 -31.5t7.5 -38q0 -41 -28.5 -69.5t-70.5 -28.5zM128 783q-17 0 -29.5 -12.5t-12.5 -30.5q0 -17 12.5 -30t29.5 -13q18 0 30.5 13t12.5 30q0 18 -12.5 30.5t-30.5 12.5
z" />
    <glyph glyph-name="plusminus" unicode="&#xb1;" horiz-adv-x="470" 
d="M30 0v69h407v-69h-407v0zM437 363v-70h-169v-168h-69v168h-169v70h169v169h69v-169h169z" />
    <glyph glyph-name="twosuperior" unicode="&#xb2;" horiz-adv-x="382" 
d="M200 572q-27 -10 -47.5 -19.5t-34 -23t-21.5 -32.5t-10 -47h260l-21 -56h-268q-12 0 -20 8.5t-8 19.5q0 51 11.5 85t31.5 56t48 36t60 25q33 12 55 21.5t35 19t18.5 21t5.5 26.5q0 21 -9.5 34.5t-25 21t-34 10.5t-36.5 3t-36.5 -3t-33.5 -10.5t-24.5 -21t-9.5 -34.5h-56
q0 58 42.5 91.5t117.5 33.5t118 -33.5t43 -91.5q0 -32 -12.5 -54t-33.5 -38t-48.5 -27t-56.5 -21z" />
    <glyph glyph-name="threesuperior" unicode="&#xb3;" horiz-adv-x="414" 
d="M321 636q60 -35 60 -108q0 -64 -46 -99.5t-129 -35.5q-108 0 -152 59q-24 31 -24 76h56q0 -25 12 -43q14 -17 41.5 -27t66.5 -10q17 0 38 3t39 11.5t30.5 24t12.5 41.5t-12.5 41.5t-30.5 24t-39 11t-38 2.5h-7l-21 56h31q14 0 31.5 2t33 8.5t26 18t10.5 31.5
q0 19 -10.5 31t-26 18.5t-33 8.5t-31.5 2t-31.5 -2t-32.5 -8.5t-25.5 -18.5t-10.5 -31h-56q0 54 42 85t114 31q74 0 115.5 -31t41.5 -85q0 -56 -45 -87z" />
    <glyph glyph-name="acute" unicode="&#xb4;" horiz-adv-x="198" 
d="M92 617h-62l55 132h83l-76 -132v0z" />
    <glyph glyph-name="mu" unicode="&#xb5;" horiz-adv-x="580" 
d="M517 532v-268q0 -129 -58.5 -201.5t-164.5 -72.5q-48 0 -86.5 16t-67.5 45v-274l-70 21v734h70v-268q0 -29 5 -64t21.5 -66.5t47 -52.5t80.5 -21t80.5 21t47 52.5t21.5 66.5t5 64v268h69z" />
    <glyph glyph-name="paragraph" unicode="&#xb6;" horiz-adv-x="608" 
d="M538 749v-778h-70v778h70zM30 475q0 130 72 202t202 72h70v-778h-70v230q-130 0 -202 72.5t-72 201.5zM304 680q-100 0 -152 -52.5t-52 -152.5q0 -99 52 -151.5t152 -52.5v409z" />
    <glyph glyph-name="periodcentered" unicode="&#xb7;" horiz-adv-x="138" 
d="M100 472v-94h-70v94h70v0z" />
    <glyph glyph-name="cedilla" unicode="&#xb8;" horiz-adv-x="253" 
d="M100 -36q24 0 45.5 -7t37 -19t24.5 -27.5t9 -33.5t-9 -34t-25.5 -28t-38.5 -19t-47 -7q-32 0 -63 13l20 45q18 -9 43 -9q31 0 51 12.5t20 26.5t-20 26.5t-51 12.5q-13 0 -25 -3l-41 -9l30 96h51l-11 -36v0z" />
    <glyph glyph-name="onesuperior" unicode="&#xb9;" horiz-adv-x="143" 
d="M112 394h-56v349l-26 -22v73l36 30q13 11 30 3q16 -7 16 -25v-408z" />
    <glyph glyph-name="ordmasculine" unicode="&#xba;" horiz-adv-x="387" 
d="M192 340q-75 0 -118.5 43.5t-43.5 118.5t43.5 119t118.5 44q76 0 119.5 -44t43.5 -119t-43.5 -118.5t-119.5 -43.5zM192 609q-18 0 -37 -4.5t-34 -16t-25 -32.5t-10 -54t10 -54t25 -32.5t34 -16t37 -4.5t37 4.5t34.5 16t25.5 32.5t10 54t-10 54t-25.5 32.5t-34.5 16
t-37 4.5z" />
    <glyph glyph-name="guillemotright" unicode="&#xbb;" horiz-adv-x="387" 
d="M168 289q9 -10 9 -23t-9 -24l-168 -185v103l95 106l-95 105v104zM345 289q9 -10 9 -23t-9 -24l-168 -185v103l95 106l-95 105v104z" />
    <glyph glyph-name="onequarter" unicode="&#xbc;" horiz-adv-x="693" 
d="M152 340h-55v348l-26 -21v72l36 30q13 11 29 4q16 -8 16 -26v-407zM616 -25h-56v102h-199q-11 0 -19.5 8t-8.5 20v5q0 8 7 17l226 276q13 15 31 8q19 -7 19 -26v-253h46l-21 -55h-25v-102zM416 132h144v175zM514 750l-484 -747h83l484 747h-83z" />
    <glyph glyph-name="onehalf" unicode="&#xbd;" horiz-adv-x="776" 
d="M592 152q29 10 56.5 21t48.5 27t33.5 38t12.5 54q0 58 -42.5 91.5t-117.5 33.5t-117.5 -33.5t-42.5 -91.5h55q0 21 9.5 34.5t25 21t34 10.5t36.5 3t36.5 -3t34 -10.5t25 -21t9.5 -34.5q0 -15 -5.5 -26.5t-18.5 -21t-35 -19t-55 -21.5q-32 -11 -60 -25t-48 -36
t-31.5 -55.5t-11.5 -84.5q0 -12 8 -20t20 -8h267l21 55h-260q3 28 10.5 47t21.5 32.5t34 23t47 19.5zM152 340h-55v348l-26 -21v72l36 30q13 11 29 4q16 -8 16 -26v-407zM514 750l-484 -747h83l484 747h-83z" />
    <glyph glyph-name="threequarters" unicode="&#xbe;" horiz-adv-x="865" 
d="M321 578q60 -35 60 -108q0 -63 -46.5 -99t-129.5 -36q-106 0 -151 59q-24 33 -24 76h56q0 -26 12 -42q28 -37 107 -37q17 0 38 2.5t39 11t30.5 24t12.5 41.5t-12.5 41.5t-30.5 24t-39 11t-38 2.5h-7l-20 56h31q14 0 31.5 2t32.5 8.5t25.5 18t10.5 31.5q0 19 -10.5 31
t-25.5 18.5t-32.5 8.5t-31.5 2t-31.5 -2t-33 -8.5t-26 -18.5t-10.5 -31h-55q0 54 42 84.5t114 30.5q74 0 115 -30.5t41 -84.5q0 -56 -44 -87zM780 -25h-55v102h-199q-11 0 -19.5 8t-8.5 20v5q0 9 6 17l227 276q12 15 31 8q18 -7 18 -26v-253h47l-21 -55h-26v-102zM581 132
h144v175zM762 750l-484 -747h-83l484 747h83z" />
    <glyph glyph-name="questiondown" unicode="&#xbf;" horiz-adv-x="543" 
d="M231 532h69v-94h-69v94zM269 -224q-112 0 -175.5 55.5t-63.5 152.5q0 39 7.5 66t21.5 49t35.5 41.5t48.5 43.5q10 10 23 18q13 10 26 24t23.5 32t16.5 41t6 52h55q0 -42 -7.5 -75t-19.5 -58t-27.5 -42t-30.5 -29l-10 -8l-10 -8q-26 -22 -42.5 -37.5t-27 -31t-14.5 -33.5
t-4 -45q0 -43 15.5 -70t40 -42t54.5 -20.5t59 -5.5t59 5.5t54 20.5t39.5 42t15.5 70h70q0 -97 -63.5 -152.5t-174.5 -55.5z" />
    <glyph glyph-name="Agrave" unicode="&#xc0;" horiz-adv-x="847" 
d="M640 202h-434l-97 -202h-79l362 736q10 20 31 20q10 0 18.5 -5.5t12.5 -14.5l364 -736h-77zM606 272l-183 370l-182 -370h365zM355 955h82l56 -133h-62z" />
    <glyph glyph-name="Aacute" unicode="&#xc1;" horiz-adv-x="847" 
d="M208 202h434l97 -202h79l-362 736q-10 20 -31 20q-22 0 -32 -20l-363 -736h77zM242 272l183 370l182 -370h-365zM417 822h-62l55 133h83z" />
    <glyph glyph-name="Acircumflex" unicode="&#xc2;" horiz-adv-x="852" 
d="M640 202h-434l-97 -202h-79l362 736q10 20 31 20q10 0 18.5 -5.5t12.5 -14.5l364 -736h-77zM606 272l-183 370l-182 -370h365zM399 829h-80l77 117q9 15 28 15t28 -15l77 -117h-80l-25 37z" />
    <glyph glyph-name="Atilde" unicode="&#xc3;" horiz-adv-x="852" 
d="M741 0h77l-364 736q-4 9 -12.5 14.5t-18.5 5.5q-21 0 -31 -20l-362 -736h79l97 202h434zM241 272l182 370l183 -370h-365zM480 827q-20 0 -36.5 9t-35.5 23q-5 4 -10 7.5t-10 7.5q-16 12 -28 9q-9 -3 -15.5 -12t-8.5 -11l-60 29q1 2 5 9.5t12.5 17t20.5 18.5t29 14
q14 4 35.5 1.5t47.5 -20.5q7 -5 12.5 -8.5t10.5 -7.5q10 -8 18 -13.5t13 -5.5q4 0 14.5 5t34.5 25l43 -51q-29 -25 -51.5 -35.5t-40.5 -10.5z" />
    <glyph glyph-name="Adieresis" unicode="&#xc4;" horiz-adv-x="856" 
d="M741 0h77l-364 736q-4 9 -12.5 14.5t-18.5 5.5q-21 0 -31 -20l-362 -736h79l97 202h434zM241 272l182 370l183 -370h-365zM409 889q0 -21 -14.5 -35.5t-34.5 -14.5t-34.5 14.5t-14.5 35.5q0 20 14.5 34.5t34.5 14.5t34.5 -14.5t14.5 -34.5zM537 889q0 -21 -14.5 -35.5
t-34.5 -14.5t-35 14.5t-15 35.5q0 20 15 34.5t35 14.5t34.5 -14.5t14.5 -34.5z" />
    <glyph glyph-name="Aring" unicode="&#xc5;" horiz-adv-x="852" 
d="M741 0h77l-364 736q-4 9 -12.5 14.5t-18.5 5.5q-21 0 -31 -20l-362 -736h79l97 202h434zM241 272l182 370l183 -370h-365zM424 787q-21 0 -39.5 8t-32.5 21.5t-22 32.5t-8 40t8 39.5t22 32.5t32.5 22t39.5 8t39.5 -8t32.5 -22t22 -32.5t8 -39.5t-8 -40t-22 -32.5
t-32.5 -21.5t-39.5 -8zM424 923q-14 0 -24.5 -10t-10.5 -24q0 -15 10.5 -25t24.5 -10t24.5 10t10.5 25q0 14 -10.5 24t-24.5 10z" />
    <glyph glyph-name="AE" unicode="&#xc6;" horiz-adv-x="829" 
d="M455 680v-234h265l-20 -70h-245v-306h340v-70h-375q-14 0 -24.5 10.5t-10.5 24.5v167h-179l-97 -202h-79l359 730q9 19 31 19h375v-69h-340zM385 565l-144 -293h144v293z" />
    <glyph glyph-name="Ccedilla" unicode="&#xc7;" horiz-adv-x="723" 
d="M322 -36q24 0 45.5 -7t37 -19t24.5 -27.5t9 -33.5t-9.5 -34t-25.5 -28t-38 -19t-47 -7q-33 0 -64 13l21 45q18 -9 43 -9q31 0 51 12.5t20 26.5t-20 26.5t-51 12.5q-13 0 -25 -3l-41 -9l33 105q-122 32 -188.5 126t-66.5 240q0 89 26 160t75 120t119.5 75t160.5 26
q150 0 247 -73l-41 -56q-79 59 -206 59q-152 0 -231.5 -80t-79.5 -231q0 -152 79.5 -232t231.5 -80q147 0 228 78l49 -50q-50 -48 -120 -73t-157 -25q-41 0 -78 6l-11 -35v0z" />
    <glyph glyph-name="Egrave" unicode="&#xc8;" horiz-adv-x="552" 
d="M120 680v-234h328l-21 -70h-307v-306h402v-70h-437q-14 0 -24.5 10.5t-10.5 24.5v680q0 14 10.5 24t24.5 10h437v-69h-402zM217 955h83l55 -133h-62z" />
    <glyph glyph-name="Eacute" unicode="&#xc9;" horiz-adv-x="552" 
d="M522 680v69h-437q-14 0 -24.5 -10t-10.5 -24v-680q0 -14 10.5 -24.5t24.5 -10.5h437v70h-402v306h307l21 70h-328v234h402zM279 822h-62l56 133h82z" />
    <glyph glyph-name="Ecircumflex" unicode="&#xca;" horiz-adv-x="552" 
d="M120 680v-234h328l-21 -70h-307v-306h402v-70h-437q-14 0 -24.5 10.5t-10.5 24.5v680q0 14 10.5 24t24.5 10h437v-69h-402zM261 829h-80l77 117q9 15 28 15t28 -15l77 -117h-80l-25 37z" />
    <glyph glyph-name="Edieresis" unicode="&#xcb;" horiz-adv-x="552" 
d="M522 680v69h-437q-14 0 -24.5 -10t-10.5 -24v-680q0 -14 10.5 -24.5t24.5 -10.5h437v70h-402v306h307l21 70h-328v234h402zM272 889q0 -21 -15 -35.5t-35 -14.5t-34.5 14.5t-14.5 35.5q0 20 14.5 34.5t34.5 14.5t35 -14.5t15 -34.5zM399 889q0 -21 -14.5 -35.5
t-34.5 -14.5t-34.5 14.5t-14.5 35.5q0 20 14.5 34.5t34.5 14.5t34.5 -14.5t14.5 -34.5z" />
    <glyph glyph-name="Igrave" unicode="&#xcc;" horiz-adv-x="262" 
d="M99 749h70v-749h-70v749zM107 822l-76 133h82l56 -133h-62z" />
    <glyph glyph-name="Iacute" unicode="&#xcd;" horiz-adv-x="235" 
d="M160 749v-749h-70v749h70v0zM152 822h-62l55 133h83l-76 -133v0z" />
    <glyph glyph-name="Icircumflex" unicode="&#xce;" horiz-adv-x="258" 
d="M101 829h-80l77 117q9 15 28 15t28 -15l77 -117h-80l-25 37zM161 749v-749h-70v749h70z" />
    <glyph glyph-name="Idieresis" unicode="&#xcf;" horiz-adv-x="258" 
d="M160 749v-749h-70v749h70zM111 889q0 -21 -15 -35.5t-35 -14.5t-34.5 14.5t-14.5 35.5q0 20 14.5 34.5t34.5 14.5t35 -14.5t15 -34.5zM238 889q0 -21 -14.5 -35.5t-34.5 -14.5t-34.5 14.5t-14.5 35.5q0 20 14.5 34.5t34.5 14.5t34.5 -14.5t14.5 -34.5z" />
    <glyph glyph-name="Eth" unicode="&#xd0;" horiz-adv-x="750" 
d="M345 749q88 0 157.5 -25.5t117.5 -73.5t73.5 -117.5t25.5 -157.5q0 -87 -26.5 -156t-75.5 -118t-119.5 -75t-158.5 -26h-181q-14 0 -24 10.5t-10 24.5v305h-96v70h96v305q0 14 10 24t24 10h187zM339 70q149 0 230 79.5t81 225.5q0 149 -78.5 227t-226.5 78h-152v-270h305
v-70h-305v-270h146z" />
    <glyph glyph-name="Ntilde" unicode="&#xd1;" horiz-adv-x="732" 
d="M611 -6q-18 0 -28 15l-421 601v-610h-70v721q0 11 6.5 20.5t17.5 12.5q11 4 22 0t17 -13l422 -602v610h69v-720q0 -12 -6.5 -21t-17.5 -13q-4 -1 -11 -1zM425 827q-20 0 -36.5 9t-34.5 23l-21 15q-17 12 -27 9t-16.5 -12t-7.5 -11l-61 29q1 2 5.5 9.5t12.5 17t20.5 18.5
t28.5 14q14 4 35.5 1.5t47.5 -20.5q7 -5 12.5 -8.5t10.5 -7.5q10 -8 18 -13.5t13 -5.5q4 0 15 5t34 25l43 -51q-29 -25 -51.5 -35.5t-40.5 -10.5z" />
    <glyph glyph-name="Ograve" unicode="&#xd2;" horiz-adv-x="829" 
d="M411 -6q-90 0 -160.5 26t-119.5 75t-75 119.5t-26 160.5q0 89 26 160t75 120t119.5 75t160.5 26t160.5 -26t119.5 -75t75 -120t26 -160q0 -90 -26 -160.5t-75 -119.5t-119.5 -75t-160.5 -26zM411 686q-152 0 -231.5 -80t-79.5 -231q0 -152 79.5 -232t231.5 -80t231.5 80
t79.5 232q0 151 -79.5 231t-231.5 80zM342 955h82l56 -133h-62z" />
    <glyph glyph-name="Oacute" unicode="&#xd3;" horiz-adv-x="824" 
d="M30 375q0 89 26 160t75 120t119.5 75t160.5 26t160.5 -26t119.5 -75t75 -120t26 -160q0 -90 -26 -160.5t-75 -119.5t-119.5 -75t-160.5 -26t-160.5 26t-119.5 75t-75 119.5t-26 160.5zM100 375q0 -152 79.5 -232t231.5 -80t231.5 80t79.5 232q0 151 -79.5 231t-231.5 80
t-231.5 -80t-79.5 -231zM404 822h-62l56 133h82z" />
    <glyph glyph-name="Ocircumflex" unicode="&#xd4;" horiz-adv-x="819" 
d="M30 375q0 89 26 160t75 120t119.5 75t160.5 26t160.5 -26t119.5 -75t75 -120t26 -160q0 -90 -26 -160.5t-75 -119.5t-119.5 -75t-160.5 -26t-160.5 26t-119.5 75t-75 119.5t-26 160.5zM100 375q0 -152 79.5 -232t231.5 -80t231.5 80t79.5 232q0 151 -79.5 231t-231.5 80
t-231.5 -80t-79.5 -231zM386 829h-80l77 117q9 15 28 15t28 -15l77 -117h-80l-25 37z" />
    <glyph glyph-name="Otilde" unicode="&#xd5;" horiz-adv-x="824" 
d="M30 375q0 89 26 160t75 120t119.5 75t160.5 26t160.5 -26t119.5 -75t75 -120t26 -160q0 -90 -26 -160.5t-75 -119.5t-119.5 -75t-160.5 -26t-160.5 26t-119.5 75t-75 119.5t-26 160.5zM100 375q0 -152 79.5 -232t231.5 -80t231.5 80t79.5 232q0 151 -79.5 231t-231.5 80
t-231.5 -80t-79.5 -231zM467 827q-20 0 -36.5 9t-35.5 23q-5 4 -10 7.5t-10 7.5q-16 12 -28 9q-9 -3 -15.5 -12t-7.5 -11l-61 29q1 2 5 9.5t12.5 17t20.5 18.5t29 14q14 4 35.5 1.5t47.5 -20.5q7 -5 12.5 -8.5t10.5 -7.5q10 -8 18 -13.5t13 -5.5q4 0 15 5t34 25l43 -51
q-29 -25 -51.5 -35.5t-40.5 -10.5z" />
    <glyph glyph-name="Odieresis" unicode="&#xd6;" horiz-adv-x="824" 
d="M30 375q0 89 26 160t75 120t119.5 75t160.5 26t160.5 -26t119.5 -75t75 -120t26 -160q0 -90 -26 -160.5t-75 -119.5t-119.5 -75t-160.5 -26t-160.5 26t-119.5 75t-75 119.5t-26 160.5zM100 375q0 -152 79.5 -232t231.5 -80t231.5 80t79.5 232q0 151 -79.5 231t-231.5 80
t-231.5 -80t-79.5 -231zM396 889q0 -21 -14.5 -35.5t-34.5 -14.5t-34.5 14.5t-14.5 35.5q0 20 14.5 34.5t34.5 14.5t34.5 -14.5t14.5 -34.5zM524 889q0 -21 -14.5 -35.5t-34.5 -14.5t-34.5 14.5t-14.5 35.5q0 20 14.5 34.5t34.5 14.5t34.5 -14.5t14.5 -34.5z" />
    <glyph glyph-name="multiply" unicode="&#xd7;" horiz-adv-x="405" 
d="M367 448l-120 -120l120 -119l-49 -49l-120 119l-119 -119l-49 49l119 119l-119 119l49 50l119 -120l120 120l49 -49v0z" />
    <glyph glyph-name="Oslash" unicode="&#xd8;" horiz-adv-x="856" 
d="M730 629q78 -98 78 -254q0 -90 -26 -160.5t-75 -119.5t-120 -75t-160 -26q-78 0 -142 19.5t-112 57.5l-94 -93l-49 49l94 94q-78 96 -78 254q0 89 26 160t75 120t119.5 75t160.5 26q156 0 254 -78l93 94l50 -50zM116 375q0 -129 57 -205l458 458q-78 58 -204 58
q-152 0 -231.5 -80t-79.5 -231zM738 375q0 126 -58 204l-458 -458q79 -58 205 -58q152 0 231.5 80t79.5 232z" />
    <glyph glyph-name="Ugrave" unicode="&#xd9;" horiz-adv-x="631" 
d="M591 749v-548q0 -98 -71.5 -152.5t-199.5 -54.5t-199 54.5t-71 152.5v548h70v-548q0 -45 20.5 -72t51 -42t65.5 -19.5t63 -4.5t63 4.5t65.5 19.5t51.5 42t21 72v548h70zM251 955h83l55 -133h-62z" />
    <glyph glyph-name="Uacute" unicode="&#xda;" horiz-adv-x="635" 
d="M120 749v-548q0 -45 20.5 -72t51 -42t65.5 -19.5t63 -4.5t63 4.5t65.5 19.5t51.5 42t21 72v548h70v-548q0 -98 -71.5 -152.5t-199.5 -54.5t-199 54.5t-71 152.5v548h70zM314 822h-63l56 133h82z" />
    <glyph glyph-name="Ucircumflex" unicode="&#xdb;" horiz-adv-x="635" 
d="M120 749v-548q0 -45 20.5 -72t51 -42t65.5 -19.5t63 -4.5t63 4.5t65.5 19.5t51.5 42t21 72v548h70v-548q0 -98 -71.5 -152.5t-199.5 -54.5t-199 54.5t-71 152.5v548h70zM296 829h-81l77 117q10 15 28 15t29 -15l76 -117h-80l-25 37z" />
    <glyph glyph-name="Udieresis" unicode="&#xdc;" horiz-adv-x="635" 
d="M120 749v-548q0 -45 20.5 -72t51 -42t65.5 -19.5t63 -4.5t63 4.5t65.5 19.5t51.5 42t21 72v548h70v-548q0 -98 -71.5 -152.5t-199.5 -54.5t-199 54.5t-71 152.5v548h70zM306 889q0 -21 -14.5 -35.5t-35.5 -14.5q-20 0 -34.5 14.5t-14.5 35.5q0 20 14.5 34.5t34.5 14.5
q21 0 35.5 -14.5t14.5 -34.5zM433 889q0 -21 -14.5 -35.5t-34.5 -14.5t-34.5 14.5t-14.5 35.5q0 20 14.5 34.5t34.5 14.5t34.5 -14.5t14.5 -34.5z" />
    <glyph glyph-name="Yacute" unicode="&#xdd;" horiz-adv-x="713" 
d="M679 749h-85l-239 -346l-240 346h-85l290 -415v-334h69v331l290 418v0zM348 822h-62l55 133h82l-75 -133v0z" />
    <glyph glyph-name="Thorn" unicode="&#xde;" horiz-adv-x="649" 
d="M344 648q129 0 201 -72t72 -201q0 -130 -72 -202t-201 -72h-204v-101h-70v749h70v-101h204zM344 171q99 0 151.5 52t52.5 152q0 99 -52.5 151.5t-151.5 52.5h-204v-408h204z" />
    <glyph glyph-name="germandbls" unicode="&#xdf;" horiz-adv-x="644" 
d="M614 199q1 -29 -6 -55.5t-18 -49t-26 -40t-30 -27.5q-27 -18 -56.5 -25.5t-58.5 -7.5q-51 0 -97.5 17.5t-75.5 39.5l42 56q16 -12 41 -23.5t53.5 -16.5t57.5 -2t55 20q7 5 16 16t16.5 25.5t12 33t4.5 38.5q0 80 -86 132q-27 17 -48.5 27t-36.5 17q-19 8 -33.5 17
t-17.5 29q-4 20 10 36t45 42l6 5q31 26 42.5 57.5t0.5 60.5q-11 30 -43.5 47.5t-79.5 17.5q-51 0 -79.5 -18t-42.5 -40t-17.5 -41.5t-3.5 -22.5v-564h-70v564v1q1 25 11 58t34.5 62.5t65 50t102.5 20.5q69 0 119 -30t70 -81q18 -50 1.5 -102t-64.5 -93l-7 -5q-3 -3 -6 -5.5
t-6 -5.5q16 -7 37.5 -17t48.5 -27q36 -23 59 -48t36 -50t18 -49t5 -44z" />
    <glyph glyph-name="agrave" unicode="&#xe0;" horiz-adv-x="612" 
d="M304 543q130 0 202 -72.5t72 -201.5v-120q0 -17 -8 -43.5t-36.5 -51t-82.5 -42t-147 -17.5t-147 17.5t-82.5 42t-36.5 51t-8 43.5q0 61 19 96t51 52.5t75.5 22.5t93.5 5h234q-14 72 -64 110t-135 38q-86 0 -139 -41l-43 55q71 56 182 56zM508 255h-204q-67 0 -107.5 -3.5
t-62 -14.5t-28 -32t-6.5 -56q0 -23 18 -39t47 -26t65.5 -14.5t73.5 -4.5t73.5 4.5t65.5 14.5t47 26t18 39v106zM235 749h82l56 -132h-62z" />
    <glyph glyph-name="aacute" unicode="&#xe1;" horiz-adv-x="612" 
d="M297 617h-62l56 132h82zM304 543q-111 0 -182 -56l43 -55q53 41 139 41q85 0 135 -38t64 -110h-234q-50 0 -93.5 -5t-75.5 -22.5t-51 -52.5t-19 -96q0 -17 8 -43.5t36.5 -51t82.5 -42t147 -17.5t147 17.5t82.5 42t36.5 51t8 43.5v120q0 129 -72 201.5t-202 72.5zM508 149
q0 -23 -18 -39t-47 -26t-65.5 -14.5t-73.5 -4.5t-73.5 4.5t-65.5 14.5t-47 26t-18 39q0 35 6.5 56t28 32t62 14.5t107.5 3.5h204v-106z" />
    <glyph glyph-name="acircumflex" unicode="&#xe2;" 
d="M304 543q130 0 202 -72.5t72 -201.5v-120q0 -17 -8 -43.5t-36 -51t-82.5 -42t-147.5 -17.5t-147 17.5t-82.5 42t-36.5 51t-8 43.5q0 61 19 96t51.5 52.5t76 22.5t92.5 5h234q-14 72 -64 110t-135 38q-86 0 -138 -41l-44 55q71 56 182 56zM508 255h-204q-67 0 -107.5 -3.5
t-62 -14.5t-28 -32t-6.5 -56q0 -23 18 -39t47 -26t65.5 -14.5t73.5 -4.5t73.5 4.5t65.5 14.5t47 26t18 39v106zM279 623h-80l77 118q10 15 28 15t28 -15l77 -118h-80l-25 38z" />
    <glyph glyph-name="atilde" unicode="&#xe3;" 
d="M304 543q-111 0 -182 -56l44 -55q52 41 138 41q85 0 135 -38t64 -110h-234q-49 0 -92.5 -5t-76 -22.5t-51.5 -52.5t-19 -96q0 -17 8 -43.5t36.5 -51t82.5 -42t147 -17.5t147.5 17.5t82.5 42t36 51t8 43.5v120q0 129 -72 201.5t-202 72.5zM508 149q0 -23 -18 -39t-47 -26
t-65.5 -14.5t-73.5 -4.5t-73.5 4.5t-65.5 14.5t-47 26t-18 39q0 35 6.5 56t28 32t62 14.5t107.5 3.5h204v-106zM360 621q-20 0 -36.5 9t-34.5 23q-5 4 -10.5 7.5t-10.5 8.5q-17 11 -27 8q-10 -2 -16.5 -11.5t-7.5 -11.5l-61 29q1 2 5.5 10t13 17.5t20.5 18.5t29 13
q14 4 35 2t47 -20q7 -5 12.5 -9t10.5 -8q10 -8 18 -13.5t13 -5.5q4 0 15 5.5t34 25.5l43 -52q-29 -25 -51.5 -35.5t-40.5 -10.5z" />
    <glyph glyph-name="adieresis" unicode="&#xe4;" horiz-adv-x="612" 
d="M304 543q-111 0 -182 -56l44 -55q52 41 138 41q85 0 135 -38t64 -110h-234q-49 0 -92.5 -5t-76 -22.5t-51.5 -52.5t-19 -96q0 -17 8 -43.5t36.5 -51t82.5 -42t147 -17.5t147.5 17.5t82.5 42t36 51t8 43.5v120q0 129 -72 201.5t-202 72.5zM508 149q0 -23 -18 -39t-47 -26
t-65.5 -14.5t-73.5 -4.5t-73.5 4.5t-65.5 14.5t-47 26t-18 39q0 35 6.5 56t28 32t62 14.5t107.5 3.5h204v-106zM290 683q0 -20 -14.5 -34.5t-35.5 -14.5q-20 0 -34.5 14.5t-14.5 34.5t14.5 34.5t34.5 14.5q21 0 35.5 -14.5t14.5 -34.5zM418 683q0 -20 -15 -34.5t-35 -14.5
t-34.5 14.5t-14.5 34.5t14.5 34.5t34.5 14.5t35 -14.5t15 -34.5z" />
    <glyph glyph-name="aring" unicode="&#xe5;" 
d="M304 543q-111 0 -182 -56l44 -55q52 41 138 41q85 0 135 -38t64 -110h-234q-49 0 -92.5 -5t-76 -22.5t-51.5 -52.5t-19 -96q0 -17 8 -43.5t36.5 -51t82.5 -42t147 -17.5t147.5 17.5t82.5 42t36 51t8 43.5v120q0 129 -72 201.5t-202 72.5zM508 149q0 -23 -18 -39t-47 -26
t-65.5 -14.5t-73.5 -4.5t-73.5 4.5t-65.5 14.5t-47 26t-18 39q0 35 6.5 56t28 32t62 14.5t107.5 3.5h204v-106zM304 581q-21 0 -39.5 8t-32.5 22t-22 32.5t-8 39.5t8 39.5t22 32.5t32.5 22t39.5 8t39.5 -8t32.5 -22t22 -32.5t8 -39.5t-8 -39.5t-22 -32.5t-32.5 -22t-39.5 -8
zM304 718q-14 0 -24.5 -10.5t-10.5 -24.5t10.5 -24.5t24.5 -10.5t24.5 10.5t10.5 24.5t-10.5 24.5t-24.5 10.5z" />
    <glyph glyph-name="ae" unicode="&#xe6;" horiz-adv-x="1091" 
d="M783 543q129 0 201.5 -72.5t72.5 -201.5v-1q0 -15 -10.5 -25t-24.5 -10h-442q9 -82 60.5 -125t141.5 -43q97 0 149 50l48 -50q-35 -35 -85.5 -52.5t-111.5 -17.5q-74 0 -129.5 24t-90.5 70q-10 -17 -28 -34t-48.5 -30.5t-75 -21.5t-106.5 -8q-93 0 -147 17.5t-82.5 42
t-36.5 51t-8 43.5q0 61 19 96t51 52.5t75.5 22.5t93.5 5h234q-14 72 -64 110t-135 38q-86 0 -139 -41l-43 55q71 56 182 56q85 0 146 -31.5t93 -91.5q33 60 94 91.5t146 31.5zM508 255h-204q-67 0 -107.5 -3.5t-62 -14.5t-28 -32t-6.5 -56q0 -23 18 -39t47 -26t65.5 -14.5
t73.5 -4.5t73.5 4.5t65.5 14.5t47 26t18 39v106zM985 303q-9 83 -60 126.5t-142 43.5t-142.5 -43.5t-60.5 -126.5h405z" />
    <glyph glyph-name="ccedilla" unicode="&#xe7;" horiz-adv-x="534" 
d="M256 -34q25 -1 46 -8t37 -19t25 -27.5t9 -33.5q0 -19 -9.5 -35t-25.5 -28t-38.5 -18.5t-47.5 -6.5q-17 0 -33.5 3t-30.5 10l21 45q18 -9 43 -9q31 0 51.5 12.5t20.5 26.5t-20.5 26t-51.5 12h-12.5t-12.5 -2l-41 -10l31 101q-90 23 -138.5 90.5t-48.5 173.5
q0 129 72 201.5t202 72.5q107 0 177 -53l-42 -56q-51 39 -135 39q-99 0 -151.5 -52.5t-52.5 -151.5q0 -100 52.5 -152t151.5 -52q48 0 86 12.5t64 38.5l49 -51q-36 -35 -86.5 -52.5t-112.5 -17.5h-19.5t-18.5 2l-10 -31v0z" />
    <glyph glyph-name="egrave" unicode="&#xe8;" 
d="M304 543q130 0 202 -72.5t72 -201.5v-1q0 -15 -10.5 -25t-24.5 -10h-441q9 -82 60 -125t141 -43q97 0 149 50l49 -50q-73 -70 -198 -70q-129 0 -201 72t-72 201v1q0 129 72 201.5t202 72.5zM507 303q-9 83 -60.5 126.5t-142.5 43.5t-142.5 -43.5t-59.5 -126.5h405z
M235 749h82l56 -132h-62z" />
    <glyph glyph-name="eacute" unicode="&#xe9;" 
d="M304 543q-130 0 -202 -72.5t-72 -201.5v-1q0 -129 72 -201t201 -72q125 0 198 70l-49 50q-52 -50 -149 -50q-90 0 -141 43t-60 125h441q14 0 24.5 10t10.5 25v1q0 129 -72 201.5t-202 72.5zM102 303q8 83 59.5 126.5t142.5 43.5t142.5 -43.5t60.5 -126.5h-405zM297 617
h-62l56 132h82z" />
    <glyph glyph-name="ecircumflex" unicode="&#xea;" 
d="M304 543q130 0 202 -72.5t72 -201.5v-1q0 -15 -10.5 -25t-24.5 -10h-441q9 -82 60 -125t141 -43q97 0 149 50l49 -50q-73 -70 -198 -70q-129 0 -201 72t-72 201v1q0 129 72 201.5t202 72.5zM507 303q-9 83 -60.5 126.5t-142.5 43.5t-142.5 -43.5t-59.5 -126.5h405z
M279 623h-80l77 118q10 15 28 15t28 -15l77 -118h-80l-25 38z" />
    <glyph glyph-name="edieresis" unicode="&#xeb;" horiz-adv-x="612" 
d="M304 543q-130 0 -202 -72.5t-72 -201.5v-1q0 -129 72 -201t201 -72q125 0 198 70l-49 50q-52 -50 -149 -50q-90 0 -141 43t-60 125h441q15 0 25 10t10 25v1q0 129 -72 201.5t-202 72.5zM102 303q8 83 59.5 126.5t142.5 43.5t142.5 -43.5t60.5 -126.5h-405zM290 683
q0 -20 -15 -34.5t-35 -14.5t-34.5 14.5t-14.5 34.5t14.5 34.5t34.5 14.5t35 -14.5t15 -34.5zM417 683q0 -20 -14.5 -34.5t-34.5 -14.5t-34.5 14.5t-14.5 34.5t14.5 34.5t34.5 14.5t34.5 -14.5t14.5 -34.5z" />
    <glyph glyph-name="igrave" unicode="&#xec;" horiz-adv-x="239" 
d="M160 0h-70v532h70v-532v0zM98 617l-76 132h82l56 -132h-62z" />
    <glyph glyph-name="iacute" unicode="&#xed;" horiz-adv-x="239" 
d="M90 532h70v-532h-70v532v0zM152 617h-62l55 132h83l-76 -132v0z" />
    <glyph glyph-name="icircumflex" unicode="&#xee;" horiz-adv-x="258" 
d="M91 532h70v-532h-70v532zM101 623h-80l77 118q10 15 28 15t28 -15l77 -118h-80l-25 38z" />
    <glyph glyph-name="idieresis" unicode="&#xef;" horiz-adv-x="258" 
d="M90 532h70v-532h-70v532zM111 683q0 -20 -15 -34.5t-35 -14.5t-34.5 14.5t-14.5 34.5t14.5 34.5t34.5 14.5t35 -14.5t15 -34.5zM238 683q0 -20 -14.5 -34.5t-34.5 -14.5t-34.5 14.5t-14.5 34.5t14.5 34.5t34.5 14.5t34.5 -14.5t14.5 -34.5z" />
    <glyph glyph-name="eth" unicode="&#xf0;" horiz-adv-x="704" 
d="M570 675q40 -38 61 -93t21 -124v-200q0 -62 -21 -111t-61 -83t-98 -52t-131 -18t-131 18t-98 52t-61 83t-21 111t21 111.5t61 83.5t98 52t131 18q79 0 140 -21t101 -61v17q0 61 -17 101t-45 66l-96 -94v101l34 32q-16 7 -32 11t-32 6l28 66q25 -5 47 -12.5t42 -17.5
l90 86v-98zM341 63q34 0 75.5 6.5t78.5 27.5t62 59.5t25 101.5q0 64 -25 102.5t-62 59t-78.5 27t-75.5 6.5t-76 -6.5t-78.5 -27t-61.5 -59t-25 -102.5q0 -42 11.5 -73t31 -52.5t44.5 -35t51.5 -21.5t53 -10.5t49.5 -2.5z" />
    <glyph glyph-name="ntilde" unicode="&#xf1;" horiz-adv-x="612" 
d="M554 0h-70v268q0 99 -44 151.5t-128 52.5t-128 -52.5t-44 -151.5v-268h-70v268q0 129 63.5 201.5t178.5 72.5q114 0 178 -72.5t64 -201.5v-268zM367 621q-19 0 -35.5 9t-35.5 23q-5 4 -10 7.5t-10 8.5q-17 11 -28 8q-9 -2 -15.5 -11.5t-8.5 -11.5l-60 29l5 10t12.5 17.5
t20.5 18.5t29 13q14 4 35.5 2t47.5 -20q7 -5 12.5 -9t10.5 -8q10 -8 18 -13.5t13 -5.5q4 0 14.5 5.5t34.5 25.5l43 -52q-29 -25 -51.5 -35.5t-41.5 -10.5z" />
    <glyph glyph-name="ograve" unicode="&#xf2;" 
d="M304 -5q-130 0 -202 72t-72 202q0 129 72 201.5t202 72.5t202 -72.5t72 -201.5q0 -130 -72 -202t-202 -72zM304 473q-100 0 -152 -52t-52 -152t52 -152t152 -52t152 52t52 152t-52 152t-152 52zM235 749h82l56 -132h-62z" />
    <glyph glyph-name="oacute" unicode="&#xf3;" horiz-adv-x="612" 
d="M30 269q0 129 72 201.5t202 72.5t202 -72.5t72 -201.5q0 -130 -72 -202t-202 -72t-202 72t-72 202zM100 269q0 -100 52 -152t152 -52t152 52t52 152t-52 152t-152 52t-152 -52t-52 -152zM297 617h-62l56 132h82z" />
    <glyph glyph-name="ocircumflex" unicode="&#xf4;" horiz-adv-x="612" 
d="M30 269q0 129 72 201.5t202 72.5t202 -72.5t72 -201.5q0 -130 -72 -202t-202 -72t-202 72t-72 202zM100 269q0 -100 52 -152t152 -52t152 52t52 152t-52 152t-152 52t-152 -52t-52 -152zM279 623h-80l77 118q10 15 28 15t28 -15l77 -118h-80l-25 38z" />
    <glyph glyph-name="otilde" unicode="&#xf5;" 
d="M30 269q0 129 72 201.5t202 72.5t202 -72.5t72 -201.5q0 -130 -72 -202t-202 -72t-202 72t-72 202zM100 269q0 -100 52 -152t152 -52t152 52t52 152t-52 152t-152 52t-152 -52t-52 -152zM360 621q-20 0 -36.5 9t-35.5 23q-5 4 -10 7.5t-10 8.5q-17 11 -27 8
q-10 -2 -16.5 -11.5t-7.5 -11.5l-61 29q1 2 5.5 10t12.5 17.5t20.5 18.5t28.5 13q14 4 35.5 2t47.5 -20q7 -5 12.5 -9t10.5 -8q10 -8 18 -13.5t13 -5.5q4 0 15 5.5t34 25.5l43 -52q-29 -25 -51.5 -35.5t-40.5 -10.5z" />
    <glyph glyph-name="odieresis" unicode="&#xf6;" horiz-adv-x="612" 
d="M30 269q0 129 72 201.5t202 72.5t202 -72.5t72 -201.5q0 -130 -72 -202t-202 -72t-202 72t-72 202zM100 269q0 -100 52 -152t152 -52t152 52t52 152t-52 152t-152 52t-152 -52t-52 -152zM289 683q0 -20 -14.5 -34.5t-34.5 -14.5t-34.5 14.5t-14.5 34.5t14.5 34.5
t34.5 14.5t34.5 -14.5t14.5 -34.5zM417 683q0 -20 -14.5 -34.5t-34.5 -14.5t-34.5 14.5t-14.5 34.5t14.5 34.5t34.5 14.5t34.5 -14.5t14.5 -34.5z" />
    <glyph glyph-name="divide" unicode="&#xf7;" horiz-adv-x="470" 
d="M437 363v-70h-407v70h407zM233 436q-21 0 -36 15t-15 36q0 22 15 37t36 15q22 0 37 -15t15 -37q0 -21 -15 -36t-37 -15zM233 118q-21 0 -36 15t-15 36t15 36t36 15q22 0 37 -15t15 -36t-15 -36t-37 -15z" />
    <glyph glyph-name="oslash" unicode="&#xf8;" horiz-adv-x="640" 
d="M543 443q50 -68 50 -174q0 -130 -72 -202t-201 -72q-54 0 -97.5 13t-77.5 37l-66 -66l-49 49l66 66q-50 68 -50 175q0 129 72 201.5t202 72.5q53 0 96.5 -13t77.5 -37l66 65l49 -49zM116 269q0 -76 30 -124l297 297q-50 31 -123 31q-100 0 -152 -52.5t-52 -151.5z
M524 269q0 73 -31 124l-297 -297q47 -31 124 -31q99 0 151.5 52t52.5 152z" />
    <glyph glyph-name="ugrave" unicode="&#xf9;" horiz-adv-x="543" 
d="M274 -5q-106 0 -165 72t-59 202v263h70v-263q0 -29 5 -64t21.5 -66.5t47 -52.5t80.5 -21t80.5 21t47 52.5t21.5 66.5t5 64v263h70v-263q0 -130 -59 -202t-165 -72zM205 749h82l56 -132h-62z" />
    <glyph glyph-name="uacute" unicode="&#xfa;" horiz-adv-x="543" 
d="M274 -5q106 0 165 72t59 202v263h-70v-263q0 -29 -5 -64t-21.5 -66.5t-47 -52.5t-80.5 -21t-80.5 21t-47 52.5t-21.5 66.5t-5 64v263h-70v-263q0 -130 59 -202t165 -72zM267 617h-62l56 132h82z" />
    <glyph glyph-name="ucircumflex" unicode="&#xfb;" horiz-adv-x="548" 
d="M274 -5q-106 0 -165 72t-59 202v263h70v-263q0 -29 5 -64t21.5 -66.5t47 -52.5t80.5 -21t80.5 21t47 52.5t21.5 66.5t5 64v263h70v-263q0 -130 -59 -202t-165 -72zM249 623h-80l77 118q10 15 28 15t28 -15l77 -118h-80l-25 38z" />
    <glyph glyph-name="udieresis" unicode="&#xfc;" horiz-adv-x="543" 
d="M274 -5q106 0 165 72t59 202v263h-70v-263q0 -29 -5 -64t-21.5 -66.5t-47 -52.5t-80.5 -21t-80.5 21t-47 52.5t-21.5 66.5t-5 64v263h-70v-263q0 -130 59 -202t165 -72zM259 683q0 -20 -14.5 -34.5t-34.5 -14.5t-34.5 14.5t-14.5 34.5t14.5 34.5t34.5 14.5t34.5 -14.5
t14.5 -34.5zM387 683q0 -20 -14.5 -34.5t-34.5 -14.5t-34.5 14.5t-14.5 34.5t14.5 34.5t34.5 14.5t34.5 -14.5t14.5 -34.5z" />
    <glyph glyph-name="yacute" unicode="&#xfd;" horiz-adv-x="589" 
d="M479 532l-187 -421l-186 421h-76l225 -508l-108 -244h76l332 752h-76v0zM286 617h-62l55 132h82l-75 -132v0z" />
    <glyph glyph-name="thorn" unicode="&#xfe;" horiz-adv-x="649" 
d="M344 542q129 0 201 -72t72 -201q0 -130 -72 -202t-201 -72q-66 0 -117.5 19.5t-86.5 56.5v-291h-70v969h70v-282q72 75 204 75zM344 65q99 0 151.5 52t52.5 152q0 99 -52.5 151.5t-151.5 52.5q-100 0 -152 -52.5t-52 -151.5q0 -100 52 -152t152 -52z" />
    <glyph glyph-name="ydieresis" unicode="&#xff;" horiz-adv-x="589" 
d="M479 532l-187 -421l-186 421h-76l225 -508l-108 -244h76l332 752h-76zM278 683q0 -20 -14.5 -34.5t-34.5 -14.5q-21 0 -35.5 14.5t-14.5 34.5t14.5 34.5t35.5 14.5q20 0 34.5 -14.5t14.5 -34.5zM406 683q0 -20 -14.5 -34.5t-35.5 -14.5q-20 0 -34.5 14.5t-14.5 34.5
t14.5 34.5t34.5 14.5q21 0 35.5 -14.5t14.5 -34.5z" />
    <glyph glyph-name="hbar" unicode="&#x127;" horiz-adv-x="718" 
d="M379 542q120 0 187 -72t67 -202v-268h-70v268q0 100 -47 152t-137 52q-89 0 -136 -52t-47 -152v-268h-70v597h-96v70h96v112h70v-112h305v-70h-305v-125q32 34 78 52t105 18z" />
    <glyph glyph-name="Itilde" unicode="&#x128;" horiz-adv-x="253" 
d="M158 749v-749h-70v749h70zM179 827q-20 0 -36.5 9t-35.5 23q-5 4 -10 7.5t-10 7.5q-17 12 -27 9t-16.5 -12t-7.5 -11l-61 29q1 2 5.5 9.5t12.5 17t20.5 18.5t28.5 14q14 4 35.5 1.5t47.5 -20.5q7 -5 12.5 -8.5t10.5 -7.5q10 -8 18 -13.5t13 -5.5q4 0 15 5t34 25l43 -51
q-29 -25 -51.5 -35.5t-40.5 -10.5z" />
    <glyph glyph-name="itilde" unicode="&#x129;" horiz-adv-x="203" 
d="M142 0h-70v532h70v-532zM163 621q-20 0 -36.5 9t-35.5 23q-5 4 -10 7.5t-10 8.5q-17 11 -27 8q-10 -2 -16.5 -11.5t-7.5 -11.5l-61 29q1 2 5.5 10t12.5 17.5t20.5 18.5t28.5 13q14 4 35.5 2t47.5 -20q7 -5 12.5 -9t10.5 -8q10 -8 18 -13.5t13 -5.5q4 0 15 5.5t34 25.5
l43 -52q-29 -25 -51.5 -35.5t-40.5 -10.5z" />
    <glyph glyph-name="dotlessi" unicode="&#x131;" horiz-adv-x="230" 
d="M160 0h-70v532h70v-532z" />
    <glyph glyph-name="IJ" unicode="&#x132;" horiz-adv-x="373" 
d="M202 -248l-54 44l22 27q64 79 64 212v714h70v-714q0 -158 -80 -256zM90 749v-749h70v749h-70z" />
    <glyph glyph-name="ij" unicode="&#x133;" horiz-adv-x="377" 
d="M304 532v-497q0 -158 -80 -256l-22 -27l-54 44l22 27q64 79 64 212v497h70zM304 685h-70v94h70v-94zM160 0h-70v532h70v-532zM160 685h-70v94h70v-94z" />
    <glyph glyph-name="Jcircumflex" unicode="&#x134;" horiz-adv-x="239" 
d="M54 -248l-54 44l22 27q64 79 64 212v714h69v-714q0 -159 -79 -256zM95 829h-80l77 117q9 15 28 15t28 -15l77 -117h-80l-25 37z" />
    <glyph glyph-name="jcircumflex" unicode="&#x135;" horiz-adv-x="230" 
d="M146 532v-497q0 -158 -80 -256l-22 -27l-54 44l22 27q64 79 64 212v497h70zM86 623h-80l77 118q10 15 28 15t28 -15l77 -118h-80l-25 38z" />
    <glyph glyph-name="kcommaaccent" unicode="&#x137;" horiz-adv-x="506" 
d="M273 287l231 -287h-89l-190 236l-85 -90v-146h-70v779h70v-531l269 284h96zM306 -47q38 -52 40 -91.5t-12 -67.5q-16 -33 -49 -56l-35 21q34 37 35.5 68t-11.5 54q-15 26 -45 47z" />
    <glyph glyph-name="kgreenlandic" unicode="&#x138;" horiz-adv-x="562" 
d="M515 532l-221 -234l239 -298h-89l-199 247l-85 -90v-157h-70v532h70v-273l259 273h96v0z" />
    <glyph glyph-name="Ldotaccent" unicode="&#x13f;" horiz-adv-x="557" 
d="M523 70l-21 -70h-437q-14 0 -24.5 10.5t-10.5 24.5v714h70v-679h423zM249 338q-22 0 -36.5 14.5t-14.5 36.5q0 21 14.5 36t36.5 15q21 0 36 -15t15 -36q0 -22 -15 -36.5t-36 -14.5z" />
    <glyph glyph-name="ldot" unicode="&#x140;" horiz-adv-x="354" 
d="M90 779h70v-779h-70v779zM269 440q21 0 36 -14.5t15 -36.5q0 -21 -15 -36t-36 -15q-22 0 -37 15t-15 36q0 22 15 36.5t37 14.5z" />
    <glyph glyph-name="Lslash" unicode="&#x141;" horiz-adv-x="644" 
d="M611 70l-21 -70h-438q-14 0 -24.5 10.5t-10.5 24.5v225l-87 -87v102l87 86v388h70v-319l177 174v-98l-177 -176v-260h424z" />
    <glyph glyph-name="lslash" unicode="&#x142;" horiz-adv-x="285" 
d="M252 547v-98l-76 -75v-374h-70v306l-76 -75v102l76 73v373h70v-305l76 73v0z" />
    <glyph glyph-name="Nacute" unicode="&#x143;" horiz-adv-x="718" 
d="M609 -6q-18 0 -28 15l-421 601v-610h-70v721q0 11 6.5 20.5t17.5 12.5q11 4 22 0t17 -13l422 -602v610h69v-720q0 -12 -6.5 -21t-17.5 -13q-4 -1 -11 -1zM360 822h-62l56 133h82z" />
    <glyph glyph-name="nacute" unicode="&#x144;" horiz-adv-x="608" 
d="M554 0h-70v268q0 99 -44 151.5t-128 52.5t-128 -52.5t-44 -151.5v-268h-70v268q0 129 63.5 201.5t178.5 72.5q114 0 178 -72.5t64 -201.5v-268zM305 617h-62l55 132h83z" />
    <glyph glyph-name="OE" unicode="&#x152;" horiz-adv-x="955" 
d="M518 680v-234h329l-21 -70h-308v-306h403v-70h-436v-1q-18 -3 -36 -4t-38 -1q-90 0 -160.5 26t-119.5 75t-75 119.5t-26 160.5q0 89 26 160t75 120t119.5 75t160.5 26q42 0 81 -6v-1h429v-69h-403zM100 375q0 -152 79.5 -232t231.5 -80q10 0 19 0.5t19 1.5v620
q-10 0 -19 0.5t-19 0.5q-152 0 -231.5 -80t-79.5 -231z" />
    <glyph glyph-name="oe" unicode="&#x153;" horiz-adv-x="1089" 
d="M782 541q129 0 201 -72t72 -201v-1q0 -14 -10 -24.5t-25 -10.5h-440q9 -81 60 -124.5t141 -43.5q95 0 149 51l48 -50q-73 -70 -197 -70q-85 0 -146 32t-93 92q-33 -60 -93.5 -91.5t-145.5 -31.5q-129 0 -201 72t-72 202q0 129 72 201t201 72q86 0 147 -32.5t93 -92.5
q32 60 93 91.5t146 31.5zM303 66q100 0 152 52t52 152q0 99 -52 151t-152 52q-99 0 -151 -52t-52 -151q0 -100 52 -152t151 -52zM984 302q-9 83 -60.5 126.5t-141.5 43.5q-91 0 -142.5 -43.5t-59.5 -126.5h404z" />
    <glyph glyph-name="Racute" unicode="&#x154;" horiz-adv-x="704" 
d="M703 0l-246 305q40 6 74 25.5t59.5 49t40 66.5t14.5 79q0 45 -17 85.5t-47 70.5t-69.5 48t-84.5 19h-2h-320q-14 0 -24.5 -10.5t-10.5 -24.5v-713h70v302h230l243 -302h90zM140 678h282q31 0 59 -12t49 -32.5t33 -48.5t12 -60t-12 -59.5t-33 -48.5t-49 -33t-59 -12h-282
v306zM380 822h-63l56 133h82z" />
    <glyph glyph-name="Rcommaaccent" unicode="&#x156;" horiz-adv-x="736" 
d="M613 0l-243 302h-230v-302h-70v713q0 14 10.5 24.5t24.5 10.5h320h2q45 -1 84.5 -19t69.5 -48t47 -70.5t17 -85.5q0 -42 -14.5 -79t-40 -66.5t-59.5 -49t-74 -25.5l246 -305h-90zM140 372h282q31 0 59 12t49 33t33 48.5t12 59.5t-12 60t-33 48.5t-49 32.5t-59 12h-282
v-306zM405 -47q38 -52 40 -91.5t-12 -67.5q-16 -33 -49 -56l-35 21q17 18 25 35.5t9.5 33t-2 29t-9.5 24.5q-15 26 -45 47z" />
    <glyph glyph-name="rcommaaccent" unicode="&#x157;" horiz-adv-x="364" 
d="M79 268q0 129 67 201.5t187 72.5v-70q-90 0 -137 -52.5t-47 -151.5v-268h-70v268zM147 -47q38 -52 40 -91.5t-12 -67.5q-16 -33 -49 -56l-35 21q34 37 35.5 68t-11.5 54q-15 26 -45 47z" />
    <glyph glyph-name="Rcaron" unicode="&#x158;" horiz-adv-x="736" 
d="M613 0l-243 302h-230v-302h-70v713q0 14 10.5 24.5t24.5 10.5h320h2q45 -1 84.5 -19t69.5 -48t47 -70.5t17 -85.5q0 -42 -14.5 -79t-40 -66.5t-59.5 -49t-74 -25.5l246 -305h-90zM140 372h282q31 0 59 12t49 33t33 48.5t12 59.5t-12 60t-33 48.5t-49 32.5t-59 12h-282
v-306zM411 954h80l-77 -118q-9 -15 -28 -15t-28 15l-77 118h81l24 -38z" />
    <glyph glyph-name="rcaron" unicode="&#x159;" horiz-adv-x="354" 
d="M70 268v-268h70v268q0 99 47 151.5t137 52.5v70q-120 0 -187 -72.5t-67 -201.5zM197 712l25 37h80l-77 -117q-9 -15 -28 -15t-28 15l-77 117h80z" />
    <glyph glyph-name="Scaron" unicode="&#x160;" horiz-adv-x="603" 
d="M325 954h81l-78 -118q-9 -15 -28 -15t-28 15l-77 118h81l24 -38zM308 408q48 -10 95.5 -22.5t84.5 -34.5t60 -57.5t23 -92.5q0 -98 -71.5 -152.5t-199.5 -54.5t-199 54.5t-71 152.5h70q0 -45 20.5 -72t51 -42t65.5 -19.5t63 -4.5t63 4.5t65.5 19.5t51.5 42t21 72
q0 31 -10 52t-34 36t-64 27t-100 24q-48 10 -95.5 22.5t-84.5 34.5t-60 58t-23 93q0 98 71 153t199 55t199.5 -55t71.5 -153h-70q0 45 -21 72t-51.5 42t-65.5 19.5t-63 4.5t-63 -4.5t-65.5 -19.5t-51 -42t-20.5 -72q0 -31 10.5 -52t35 -36.5t64 -27.5t98.5 -24z" />
    <glyph glyph-name="scaron" unicode="&#x161;" horiz-adv-x="460" 
d="M235 302q-44 9 -70.5 18t-41 18.5t-19 21.5t-4.5 29q0 26 11.5 42.5t30 25.5t41.5 12.5t45 3.5t44.5 -3.5t41 -12.5t30.5 -25.5t12 -42.5h69q0 72 -53 113t-144 41q-92 0 -145 -41t-53 -113q0 -43 17 -70t44.5 -43.5t61.5 -25.5t67 -16q42 -9 68.5 -16.5t41.5 -17
t20.5 -21.5t5.5 -30q0 -26 -12 -42.5t-30.5 -26t-41 -13t-44.5 -3.5t-45 3.5t-41.5 13t-30 26t-11.5 42.5h-70q0 -72 53 -113t145 -41q91 0 144 41t53 113q0 42 -17 69t-44.5 43.5t-61.5 25t-67 15.5zM228 712l24 37h81l-77 -117q-9 -15 -28 -15t-28 15l-78 117h81z" />
    <glyph glyph-name="Ydieresis" unicode="&#x178;" horiz-adv-x="713" 
d="M679 749h-85l-239 -346l-240 346h-85l290 -415v-334h69v331zM340 889q0 -21 -14.5 -35.5t-34.5 -14.5q-21 0 -35.5 14.5t-14.5 35.5q0 20 14.5 34.5t35.5 14.5q20 0 34.5 -14.5t14.5 -34.5zM468 889q0 -21 -14.5 -35.5t-35.5 -14.5q-20 0 -34.5 14.5t-14.5 35.5
q0 20 14.5 34.5t34.5 14.5q21 0 35.5 -14.5t14.5 -34.5zM679 749h-85l-239 -346l-240 346h-85l290 -415v-334h69v331z" />
    <glyph glyph-name="Zcaron" unicode="&#x17d;" horiz-adv-x="534" 
d="M481 0h-416q-20 0 -30 18q-12 17 0 35l371 627h-355v69h416q22 0 31 -17q10 -18 -1 -35l-371 -627h355v-70zM291 954h80l-77 -118q-9 -15 -28 -15t-28 15l-77 118h80l25 -38z" />
    <glyph glyph-name="zcaron" unicode="&#x17e;" horiz-adv-x="405" 
d="M373 0h-308q-20 0 -30 17q-12 18 0 35l243 410h-248v70h308q20 0 31 -18q10 -18 -1 -35l-242 -410h247v-69zM202 712l24 37h81l-77 -117q-9 -15 -28 -15t-28 15l-78 117h81z" />
    <glyph glyph-name="florin" unicode="&#x192;" horiz-adv-x="511" 
d="M445 686q-77 0 -130 -55.5t-69 -152.5l-18 -111h180l-28 -70h-163l-71 -440q-11 -66 -38 -118t-67 -87q-2 23 -5 45.5t-6 45.5q35 50 47 125l69 429h-97l28 70h80l20 122q10 61 33.5 110t58.5 84t80 54t96 19h35l-35 -70v0z" />
    <glyph glyph-name="dotlessj" unicode="&#x237;" horiz-adv-x="239" 
d="M155 532v-497q0 -158 -80 -256l-22 -27l-54 44l22 27q64 79 64 212v497h70z" />
    <glyph glyph-name="circumflex" unicode="&#x2c6;" horiz-adv-x="276" 
d="M110 623h-80l77 118q10 15 28 15t28 -15l77 -118h-80l-25 38z" />
    <glyph glyph-name="caron" unicode="&#x2c7;" horiz-adv-x="272" 
d="M135 712l25 37h80l-77 -117q-9 -15 -28 -15t-28 15l-77 117h80z" />
    <glyph glyph-name="ring" unicode="&#x2da;" horiz-adv-x="267" 
d="M132 581q-21 0 -39.5 8t-32.5 22t-22 32.5t-8 39.5t8 39.5t22 32.5t32.5 22t39.5 8t39.5 -8t32.5 -22t22 -32.5t8 -39.5t-8 -39.5t-22 -32.5t-32.5 -22t-39.5 -8zM132 718q-14 0 -24.5 -10.5t-10.5 -24.5t10.5 -24.5t24.5 -10.5t24.5 10.5t10.5 24.5t-10.5 24.5
t-24.5 10.5z" />
    <glyph glyph-name="tilde" unicode="&#x2dc;" horiz-adv-x="359" 
d="M234 621q-20 0 -36.5 9t-35.5 23q-5 4 -10 7.5t-10 8.5q-17 11 -27 8q-10 -2 -16.5 -11.5t-7.5 -11.5l-61 29q1 2 5.5 10t12.5 17.5t20.5 18.5t28.5 13q14 4 35.5 2t47.5 -20q7 -5 12.5 -9t10.5 -8q10 -8 18 -13.5t13 -5.5q4 0 15 5.5t34 25.5l43 -52
q-29 -25 -51.5 -35.5t-40.5 -10.5z" />
    <glyph glyph-name="dotaccentcmb" unicode="&#x307;" horiz-adv-x="166" 
d="M81 338q-21 0 -36 14.5t-15 36.5q0 21 15 36t36 15t36 -15t15 -36q0 -22 -15 -36.5t-36 -14.5z" />
    <glyph glyph-name="endash" unicode="&#x2013;" horiz-adv-x="516" 
d="M30 300h455v-69h-455v69v0z" />
    <glyph glyph-name="emdash" unicode="&#x2014;" horiz-adv-x="856" 
d="M30 300h793v-69h-793v69v0z" />
    <glyph glyph-name="quoteleft" unicode="&#x2018;" horiz-adv-x="97" 
d="M30 567v94q0 19 4 36q3 14 10 29t20 23l24 -25q-4 -4 -8 -12q-3 -7 -5.5 -19t-2.5 -32h28v-94h-70z" />
    <glyph glyph-name="quoteright" unicode="&#x2019;" horiz-adv-x="106" 
d="M68 749v-93q0 -19 -4 -37q-3 -15 -10 -29.5t-20 -22.5l-25 26q4 3 8 11q3 7 6 19.5t3 32.5h-28v93h70z" />
    <glyph glyph-name="quotesinglbase" unicode="&#x201a;" horiz-adv-x="101" 
d="M70 94v-94q0 -19 -4 -36q-3 -15 -10 -30t-20 -23l-25 26q4 4 8 12q3 7 6 19t3 32h-28v94h70z" />
    <glyph glyph-name="quotedblleft" unicode="&#x201c;" horiz-adv-x="216" 
d="M130 567v94q0 19 4 36q3 14 10 29t20 23l24 -25q-4 -4 -8 -12q-3 -7 -5.5 -19t-2.5 -32h28v-94h-70zM30 567v94q0 19 4 36q3 14 10 29t20 23l24 -25q-4 -4 -8 -12q-3 -7 -5.5 -19t-2.5 -32h28v-94h-70z" />
    <glyph glyph-name="quotedblright" unicode="&#x201d;" horiz-adv-x="203" 
d="M68 749v-93q0 -19 -4 -37q-3 -15 -10 -29.5t-20 -22.5l-25 26q4 3 8 11q3 7 6 19.5t3 32.5h-28v93h70zM168 749v-93q0 -19 -4 -37q-3 -15 -10 -29.5t-20 -22.5l-25 26q4 3 8 11q3 7 6 19.5t3 32.5h-28v93h70z" />
    <glyph glyph-name="quotedblbase" unicode="&#x201e;" horiz-adv-x="203" 
d="M70 94v-94q0 -19 -4 -36q-3 -15 -10 -30t-20 -23l-25 26q4 4 8 12q3 7 6 19t3 32h-28v94h70zM170 94v-94q0 -19 -4 -36q-3 -15 -10 -30t-20 -23l-25 26q4 4 8 12q3 7 6 19t3 32h-28v94h70z" />
    <glyph glyph-name="dagger" unicode="&#x2020;" horiz-adv-x="529" 
d="M497 399v-70h-198v-727h-70v727h-199v70h199v350h70v-350h198v0z" />
    <glyph glyph-name="daggerdbl" unicode="&#x2021;" horiz-adv-x="534" 
d="M497 329h-198v-307h198v-70h-198v-350h-70v350h-199v70h199v307h-199v70h199v350h70v-350h198v-70v0z" />
    <glyph glyph-name="bullet" unicode="&#x2022;" horiz-adv-x="193" 
d="M160 425q0 -27 -19 -46t-46 -19t-46 19t-19 46t19 46t46 19t46 -19t19 -46z" />
    <glyph glyph-name="ellipsis" unicode="&#x2026;" horiz-adv-x="490" 
d="M100 94v-94h-70v94h70zM280 94v-94h-70v94h70zM460 94v-94h-70v94h70z" />
    <glyph glyph-name="perthousand" unicode="&#x2030;" horiz-adv-x="1151" 
d="M603 749l-485 -748h83l485 748h-83zM191 358q-29 0 -58 10.5t-52 34t-37 61.5t-14 93t14 93t37 61.5t52 34t58 10.5t57.5 -10.5t51.5 -34t37 -61.5t14 -93t-14 -93t-37 -61.5t-51.5 -34t-57.5 -10.5zM191 686q-29 0 -46.5 -12t-27.5 -30.5t-13.5 -41.5t-3.5 -45t3.5 -45
t13.5 -41.5t27.5 -30.5t46.5 -12q28 0 45.5 12t27.5 30.5t13.5 41.5t3.5 45t-3.5 45t-13.5 41.5t-27.5 30.5t-45.5 12zM619 -6q-29 0 -57.5 10.5t-51.5 34t-37 61t-14 92.5t14 93t37 61.5t51.5 34t57.5 10.5t58 -10.5t52 -34t37 -61.5t14 -93t-14 -92.5t-37 -61t-52 -34
t-58 -10.5zM619 322q-28 0 -46 -12t-28 -31t-13.5 -42t-3.5 -45t3.5 -45t13.5 -41.5t28 -30.5t46 -12t46 12t28 30.5t13.5 41.5t3.5 45t-3.5 45t-13.5 42t-28 31t-46 12zM963 -6q-29 0 -57.5 10.5t-51.5 34t-37 61t-14 92.5t14 93t37 61.5t51.5 34t57.5 10.5t58 -10.5
t52 -34t37 -61.5t14 -93t-14 -92.5t-37 -61t-52 -34t-58 -10.5zM963 322q-28 0 -46 -12t-28 -31t-13.5 -42t-3.5 -45t3.5 -45t13.5 -41.5t28 -30.5t46 -12t46 12t28 30.5t13.5 41.5t3.5 45t-3.5 45t-13.5 42t-28 31t-46 12z" />
    <glyph glyph-name="guilsinglleft" unicode="&#x2039;" horiz-adv-x="207" 
d="M39 289l168 186v-104l-95 -105l95 -106v-103l-168 185q-9 11 -9 24t9 23z" />
    <glyph glyph-name="guilsinglright" unicode="&#x203a;" horiz-adv-x="212" 
d="M168 289q9 -10 9 -23t-9 -24l-168 -185v103l95 106l-95 105v104l168 -186v0z" />
    <glyph glyph-name="Euro" unicode="&#x20ac;" horiz-adv-x="672" 
d="M638 31l-32 -13q-63 -24 -142 -24q-145 0 -233.5 79t-108.5 224h-92l28 69h59v9q0 18 1 34.5t3 33.5h-91l28 70h76q32 116 116.5 179.5t213.5 63.5q66 0 123 -18l33 -11l-21 -66l-34 10q-45 15 -101 15q-100 0 -164.5 -44t-92.5 -129h379l-28 -70h-367q-2 -16 -3 -33
t-1 -35v-9h343l-27 -69h-311q18 -114 87 -174t185 -60q63 0 117 20l32 13z" />
    <glyph glyph-name="trademark" unicode="&#x2122;" horiz-adv-x="716" 
d="M30 749h268v-70h-99v-288h-70v288h-99v70zM660 754q11 -3 18.5 -12t7.5 -21v-330h-70v203l-74 -124q-5 -8 -13 -12.5t-17 -4.5t-17 4.5t-13 12.5l-74 124v-203h-70v330q0 26 26 33q11 4 22 -0.5t17 -14.5l109 -183l109 183q6 10 17 14.5t22 0.5z" />
    <glyph glyph-name="commaaccent" horiz-adv-x="184" 
d="M107 -47q38 -52 40 -91.5t-12 -67.5q-16 -33 -49 -56l-35 21q34 37 35.5 68t-11.5 54q-15 26 -45 47l77 25v0z" />
    <glyph glyph-name="foundryicon" horiz-adv-x="1261" 
d="M525 364h91v-370h-60q-29 1 -56.5 6.5t-53.5 14.5v-21h-61q-72 3 -138 33q-32 15 -60.5 34.5t-52.5 45.5q-48 50 -76 116t-28 141h93q0 -90 52 -163q54 -72 135 -100q-26 26 -46 55.5t-34 62.5q-30 69 -30 145h93q0 -100 62 -175v175h91v-248q39 -20 79 -26v274z
M1083 201q52 73 52 163h93q0 -75 -28 -141t-76 -116q-46 -49 -113 -80q-66 -30 -138 -33h-61v21q-26 -9 -53.5 -14.5t-56.5 -6.5h-60v370h91v-274q40 6 79 26v248h91v-175q62 75 62 175h93q0 -76 -30 -145q-14 -33 -34 -62.5t-46 -55.5q81 28 135 100zM733 385h-91v371h60
q59 -3 110 -22v22h61q73 -3 138 -34q65 -29 113 -80q49 -51 76 -116q28 -66 28 -141h-93q0 92 -52 163t-135 100q51 -50 80 -118q30 -69 30 -145h-93q0 100 -62 175v-175h-91v249q-39 19 -79 26v-275zM446 734q51 19 110 22h60v-371h-91v275q-40 -7 -79 -26v-249h-91v175
q-62 -75 -62 -175h-93q0 76 30 145q29 68 80 118q-83 -29 -135 -100t-52 -163h-93q0 75 28 141q27 65 76 116q48 51 113 80q65 31 138 34h61v-22z" />
    <glyph glyph-name="grave.cap" horiz-adv-x="193" 
d="M106 822l-76 133h82l56 -133h-62v0z" />
    <glyph glyph-name="dotaccentcmb.cap" horiz-adv-x="166" 
d="M81 338q-21 0 -36 14.5t-15 36.5q0 21 15 36t36 15t36 -15t15 -36q0 -22 -15 -36.5t-36 -14.5z" />
    <glyph glyph-name="percent" horiz-adv-x="812" 
d="M603 749l-485 -748h83l485 748h-83zM191 358q-29 0 -58 10.5t-52 34t-37 61.5t-14 93t14 93t37 61.5t52 34t58 10.5t57.5 -10.5t51.5 -34t37 -61.5t14 -93t-14 -93t-37 -61.5t-51.5 -34t-57.5 -10.5zM191 686q-29 0 -46.5 -12t-27.5 -30.5t-13.5 -41.5t-3.5 -45t3.5 -45
t13.5 -41.5t27.5 -30.5t46.5 -12q28 0 45.5 12t27.5 30.5t13.5 41.5t3.5 45t-3.5 45t-13.5 41.5t-27.5 30.5t-45.5 12zM619 -6q-29 0 -57.5 10.5t-51.5 34t-37 61t-14 92.5t14 93t37 61.5t51.5 34t57.5 10.5t58 -10.5t52 -34t37 -61.5t14 -93t-14 -92.5t-37 -61t-52 -34
t-58 -10.5zM619 322q-28 0 -46 -12t-28 -31t-13.5 -42t-3.5 -45t3.5 -45t13.5 -41.5t28 -30.5t46 -12t46 12t28 30.5t13.5 41.5t3.5 45t-3.5 45t-13.5 42t-28 31t-46 12z" />
    </font>
</defs>
</svg>
